<svg xmlns="http://www.w3.org/2000/svg" viewBox="0 0 648 648"><path d="M520.8 190.7c-8.5-12.6-18.3-24.5-29.1-35.3-4.7-4.7-9.6-9.2-14.6-13.5l106-106H274.2L154.9 155.2l-.3.3c-10.8 10.8-20.6 22.6-29.1 35.3-8.6 12.7-16 26.4-22 40.5-12.4 29.4-18.7 60.6-18.7 92.8 0 32.2 6.3 63.4 18.7 92.8 6 14.1 13.4 27.7 22 40.5 8.5 12.6 18.3 24.5 29.1 35.3 4.7 4.7 9.6 9.2 14.7 13.5l-106 106h308.9l119.7-119.7c10.7-10.7 20.4-22.5 28.9-35 8.6-12.7 16-26.4 22-40.5 12.4-29.4 18.7-60.6 18.7-92.8 0-32.2-6.3-63.4-18.7-92.8-6-14.3-13.4-27.9-22-40.7" fill="#061922"/><path d="M477.7 169.2c-4.7-4.7-9.5-9.1-14.5-13.2L333.6 285.6c6.4 1.8 12.4 5.2 17.4 10.2 15.7 15.7 15.7 41 0 56.7L110.9 592.7H139l226.1-226.1c23.4-23.4 23.4-61.2.2-84.6l14.1-14.1c31 31.2 30.9 81.6-.2 112.8l-212 212h28.1l198-198c38.9-38.9 39-101.9.2-140.9l14.1-14.1c46.5 46.8 46.5 122.4-.2 169.1l-184 183.9h28.1l169.8-169.8c54.4-54.4 54.5-142.7.2-197.2l14.1-14.1c62.1 62.3 62 163.1-.2 225.3L279.7 592.7h28.1L449.6 451c70-70 70.1-183.4.2-253.5l14.2-14.2c77.7 77.9 77.6 204-.2 281.8L336.2 592.7h28.1l113.5-113.5-.1-.1c85.6-85.5 85.6-224.3 0-309.9" fill="#fff"/><path d="M168.8 479c4.7 4.7 9.5 9.1 14.5 13.3L313 362.6c-6.4-1.8-12.4-5.2-17.4-10.2-15.7-15.7-15.7-41 0-56.7L536 55.1h-28.1L281.4 281.5c-23.4 23.4-23.4 61.2-.2 84.6l-14.1 14.1c-31-31.2-30.9-81.6.2-112.8L479.7 55.1h-28.1L253.2 253.4c-38.9 38.9-39 101.9-.2 140.9l-14 14.1c-46.5-46.8-46.5-122.4.2-169.1L423.4 55.1h-28.1L225.1 225.2c-54.4 54.4-54.5 142.7-.2 197.2l-14.1 14.1c-62.1-62.3-62-163.1.2-225.3L367.1 55.1H339l-142 142c-70 70-70.1 183.4-.2 253.5l-14.2 14.2c-77.7-77.9-77.6-204 .2-281.8L310.6 55.1h-28.1L168.7 168.9l.1.1c-85.6 85.5-85.6 224.3 0 310" fill="#e03a3e"/></svg>