<svg version="1.1" id="Layer_1" xmlns="http://www.w3.org/2000/svg" x="0" y="0" viewBox="0 0 648 648" xml:space="preserve"><style>.st0{fill:#fff}.st1{fill:#63717a}.st2{fill:#5b2b82}</style><path class="st0" d="M576.4 36l-72.3 72.5-60.4-60.3-60.7 60.3-60.3-60.3-60.3 60.3-60.3-60.3-60.1 60.4-70.4-71.2v321.2c0 139.7 112 253.4 251.6 253.4s253.2-113.7 253.2-253.4V36z"/><path class="st1" d="M94.1 402.6c6 30.3 17.8 58.7 35.1 84.6 10.5-18.4 31.5-41.3 72.8-51-3.2-10.6-6-21.9-8.4-33.6H94.1zM145.7 509c44.6 52.3 108.8 82.4 176.5 82.8-6.4-3.3-12.6-6.8-18.6-10.7-28.7-18.5-68.1-54.6-93.6-121.5-40.2 8.7-57.1 31.4-64.3 49.4M234.6 456c18.1 45.4 45.4 80.4 81.2 103.8 23.7 15.5 46.4 22.6 61.4 25.8 37.5-8.7 72.5-26.8 101.5-52.3-22.9-2.5-46.3-15.7-71-29.5C369 482 320.9 455.1 256 455.1c-7 0-14.2.3-21.4.9z"/><path class="st2" d="M332.3 284.4h-83.5v99.4h34.7V304h26.1v79.8h33.1v-85.5c-.1-7.5-4.7-13.9-10.4-13.9zM357.2 284.4v85.3c0 7.6 4.6 14.1 10.3 14.1h83.4v-60.4h-33.3v40.7h-26.1v-60.5h59.4v-19.2h-93.7zM156.4 284.4l-18.8 40.2h-10.9v-40.2H92.1v99.5h34.6v-40h10.9l18.8 40h34.5l-24.3-49.7 24.3-49.8zM200.1 284.4h35.8v99.4h-35.8zM556 311.3v-26.9h-91.7v45.4c0 7.6 4.6 13.7 10.2 13.7h46.7v21.7h-57v18.6H556v-45.6c0-7.1-3.9-13.7-9.2-13.7h-48.2v-20.8h24.1v7.6H556zM458.4 183.6h-29.2l60.3-60.4-45.7-45.7-60.7 60.3-60.3-60.3-105.9 106.1h-29.3l60.3-60.5-45.6-45.6-60.3 60.3-49.9-49.5v177.9H556V86z"/><path class="st0" d="M193.5 247.1c0 2.6 2.1 4.7 4.7 4.7h26.1v-7h-21.2V222h21.2v-7h-30.7v32.1zM151 215.1v36.7h9.5v-9.6h11.8v9.6h9.5v-32c0-2.7-2.2-4.7-5.2-4.7H151zm21.2 20.1h-11.8v-13.1h11.8v13.1zM534.1 215.1h-21.5c-2.6 0-4.7 2.1-4.7 4.6v27.4c0 2.6 2.1 4.7 4.7 4.7h21.5c2.6 0 4.7-2.1 4.7-4.7v-27.4c-.1-2.6-2.2-4.6-4.7-4.6m-4.9 29.6h-11.7V222h11.7v22.7zM108.4 232.2c0 2.6 2.1 4.7 4.7 4.7h16.6v7.9h-21.2v7h30.7v-17.2c0-2.4-1.8-4.4-4.2-4.6h-17.1v-8h21.3v-7h-30.7v17.2zM303.7 215.1h-26.1v36.7h9.5v-9.6h11.8v9.6h9.5v-32c0-2.6-2.1-4.7-4.7-4.7m-4.8 20.1h-11.8v-13.1h11.8v13.1zM466.6 222h10.6v29.8h9.5V222h10.6v-6.9h-30.7zM368.2 215.1H321v36.7h9.5V222h11.6v29.7h9.6V222h11.6v29.7h9.5v-32c.1-2.5-2-4.6-4.6-4.6zM452.3 215.1h-26.1v36.7h9.5V222h11.8v29.7h9.5v-32c0-2.5-2.1-4.6-4.7-4.6zM385.8 247.1c0 2.6 2.1 4.7 4.7 4.7h26v-7h-21.2v-7.9h21.2v-7h-21.2V222h21.2v-7h-30.7v32.1zM260.8 238.4h5.1v-18.7c0-2.7-2.3-4.7-5.2-4.7h-25.5v36.7h9.5v-13.4h6.9l5.7 13.4h9.2l-5.7-13.3zm-4.4-7h-11.8V222h11.8v9.4z"/><path class="st1" d="M250.9 430.8c49.4-1 98.3 11.4 160.6 46.9 46.1 26.3 66.3 34.2 80.2 30.8 12.7-3.1 24.5-10.7 45.4-54.7 8-16.8 13.7-36.7 16.4-51.2H218.2c2.3 10.2 4.6 20.3 7.7 29.5 8.2-.8 16.6-1.3 25-1.3z"/></svg>