<svg version="1.1" id="Layer_1" xmlns="http://www.w3.org/2000/svg" x="0" y="0" viewBox="0 0 648 648" xml:space="preserve"><style>.st0{fill:#c4ced3}.st2{fill:#fff}.st3{fill:#007dc5}</style><path class="st0" d="M246.8 311.7c42.8-6.6 85.5-4.6 122.9 11.1l4.6-10c-60.5-19.5-136.5-18.5-193.2 12.5l16.1-37.5C126 307.1 78.1 347.2 30 388.6c35.1-82.9 111.4-151.1 197.7-175.8l-4.4 13.8c75.6-24.7 158.5-29.3 225.7-18.3l-15.7-20.5 38.5 9.8 24.8-37 9.8 45.8 37.9 12.3s-27.6 11.6-26.3 12.1c143.5 59.1 97.6 255.5-38.9 256.6-69 .6-122.6-61.8-120.2-127-35.1-23.2-70.3-34.3-112.1-48.7"/><path d="M503.9 230.8c7.9-3.4 22.6-9.9 22.6-9.9l1.1-.5-1.1-.4s-23.7-7.8-28.8-9.5c-.8-5.4-4.5-31.1-4.5-31.1l-.2-1.3-8.6 14s-4.9 8-7.6 12.3c-5.6-1.4-30.1-7.7-30.1-7.7l-1.3-.3.8 1.1s10 12.8 16 20.6c-24.7-5.4-53.1-8.3-85.7-8.3-10.7 0-21.9.3-33.5 1-44.5 2.5-88.2 10.8-130.2 26l4.8-14.3-.9.3C151 243.4 79.2 305 47.4 365.8l.7.5c44.9-42.1 105.7-75.7 160.1-88l-14.3 33.4 1.1-.5c25.4-12.2 58.6-17.6 92.2-17.6 34.4 0 69 5.7 95.8 15.4l-10.3 22.4c-24.4-11.2-59.8-18.7-89.1-18.8-5.2 0-10.3.2-15 .7l-.1.9c34.6 9.8 70.5 20.8 98.9 43.6-.2 2.4-.3 4.8-.3 7.2 0 59.9 51.8 114.2 112.5 114.2h1.2c66.9-.8 116.5-62.2 116.5-126.1.2-47-26.7-95.6-93.4-122.3z" fill="#061922"/><path class="st0" d="M467.4 340.6c-24.7 0-49.4-9.1-74.3-18.2-6.5 13.8-9.9 28.3-9.9 43.1 0 7.8.9 15.8 2.8 23.7 2 0 4.1.1 6.2.1 48 0 98.8-13.3 139.9-37.7-4.7-8.8-10.6-17-16.7-25-15.9 10.2-32 14-48 14z"/><path class="st0" d="M390.5 398.6h-1.6c15 38.8 49.4 64.5 91.3 65.1 13.4-33.1 28.3-69.2 62.4-86.1-1.8-6-4-11.8-6.4-17.5-43.8 25.6-95 38.5-145.7 38.5zM494.1 276.9c-14.9-5.7-24.4-7.5-25.3-7.6-4.2.6-9.8 1.1-14.4 2 25.3 10.1 44.1 22.3 62.9 43.3 9.7-7.6 18.1-16.3 24-26.9-17.2-16.8-49.7-37.3-130.7-43.7 34.2 8.1 65.6 19.1 83.9 32.1l-.4.8zM267.1 265.7c5-.1 10.4-.2 16.2-.2 57.5 0 146.3 6.8 180.7 47.7l-.6.7c-11.9-6.6-35.7-17.6-50.6-17.6h-1.4c-5.1 5.6-9.6 11.9-13.7 18.3 23 8.5 46.3 16.9 69.4 16.9 14.5 0 28.9-3.3 43.2-12-39.9-43.5-107.4-62.4-171.1-62.4-25.3 0-50 2.9-72.1 8.6zM539.3 347.1c11.1-7.6 20.7-15.5 29.5-25.6-5.5-10.4-15-22.2-21.8-28.2-6.3 11.2-14.5 20.4-24.3 28.5 5.8 7.7 11.9 16.7 16.6 25.3z"/><path class="st0" d="M490 463.3c20.2-2.5 38.8-9.4 54.4-22.6 2.4-8.9 3.4-18.2 3.4-27.5 0-8.9-.9-17.8-2.5-26.4-30.5 14.6-43.2 46.8-55.3 76.5zM556.8 419.1c0 3.1-.1 6.1-.2 9.2 11.9-16 18.2-30 21.7-50.5-8.7.8-17.2 2.2-25.4 4.9 2.7 12.1 3.9 24.2 3.9 36.4zM543.5 355.5c2.7 6.1 5 12.3 7.1 18.7 9.5-3.1 18.7-4.7 28.6-5.3v-2.1c0-13.1-1.9-23.2-6.2-35.8-9 9.4-18.6 17.3-29.5 24.5z"/><path class="st0" d="M579.2 368.9c-9.9.6-19.1 2.2-28.6 5.3-2.1-6.4-4.4-12.6-7.1-18.7 10.8-7.2 20.4-15.2 29.5-24.5 4.3 12.6 6.2 22.6 6.2 35.8.1.7.1 1.4 0 2.1z"/><path class="st0" d="M579.2 368.9c-9.9.6-19.1 2.2-28.6 5.3-2.1-6.4-4.4-12.6-7.1-18.7 10.8-7.2 20.4-15.2 29.5-24.5 4.3 12.6 6.2 22.6 6.2 35.8.1.7.1 1.4 0 2.1zM547 293.2c6.8 6 16.3 17.8 21.8 28.2-8.7 10.2-18.3 18.1-29.5 25.6-4.7-8.5-10.8-17.6-16.7-25.3 9.9-8.1 18.1-17.3 24.4-28.5z"/><path class="st0" d="M547 293.2c6.8 6 16.3 17.8 21.8 28.2-8.7 10.2-18.3 18.1-29.5 25.6-4.7-8.5-10.8-17.6-16.7-25.3 9.9-8.1 18.1-17.3 24.4-28.5zM410.7 244c81 6.4 113.4 26.9 130.7 43.7-5.9 10.6-14.4 19.3-24 26.9-18.8-21-37.5-33.2-62.9-43.3 4.6-.9 10.2-1.5 14.4-2 .9.2 10.4 1.9 25.3 7.6l.4-.8c-18.3-13-49.8-23.9-83.9-32.1z"/><path class="st0" d="M410.7 244c81 6.4 113.4 26.9 130.7 43.7-5.9 10.6-14.4 19.3-24 26.9-18.8-21-37.5-33.2-62.9-43.3 4.6-.9 10.2-1.5 14.4-2 .9.2 10.4 1.9 25.3 7.6l.4-.8c-18.3-13-49.8-23.9-83.9-32.1zM392.2 389.3c-2.1 0-4.1 0-6.2-.1-1.9-7.9-2.8-15.9-2.8-23.7 0-14.8 3.3-29.3 9.9-43.1 24.8 9.1 49.6 18.2 74.3 18.2 16 0 32.1-3.8 48.1-14 6.1 7.9 12 16.2 16.7 25-41.1 24.4-92 37.7-140 37.7z"/><path class="st0" d="M392.2 389.3c-2.1 0-4.1 0-6.2-.1-1.9-7.9-2.8-15.9-2.8-23.7 0-14.8 3.3-29.3 9.9-43.1 24.8 9.1 49.6 18.2 74.3 18.2 16 0 32.1-3.8 48.1-14 6.1 7.9 12 16.2 16.7 25-41.1 24.4-92 37.7-140 37.7z"/><path class="st0" d="M480.2 463.7c-41.9-.6-76.3-26.3-91.3-65.1h1.6c50.7 0 101.9-12.9 145.7-38.5 2.4 5.7 4.6 11.5 6.4 17.5-34.1 16.9-49 53-62.4 86.1z"/><path class="st0" d="M480.2 463.7c-41.9-.6-76.3-26.3-91.3-65.1h1.6c50.7 0 101.9-12.9 145.7-38.5 2.4 5.7 4.6 11.5 6.4 17.5-34.1 16.9-49 53-62.4 86.1zM556.6 428.3c.1-3.1.2-6.1.2-9.2 0-12.2-1.2-24.3-3.9-36.4 8.2-2.7 16.7-4.2 25.4-4.9-3.5 20.5-9.9 34.5-21.7 50.5z"/><path class="st0" d="M556.6 428.3c.1-3.1.2-6.1.2-9.2 0-12.2-1.2-24.3-3.9-36.4 8.2-2.7 16.7-4.2 25.4-4.9-3.5 20.5-9.9 34.5-21.7 50.5zM510.4 319.5c-14.3 8.7-28.7 12-43.2 12-23.1 0-46.4-8.4-69.4-16.9 4-6.5 8.6-12.7 13.7-18.3h1.4c14.9 0 38.7 11 50.6 17.6l.6-.7c-34.4-40.9-123.2-47.6-180.7-47.7-5.7 0-11.2.1-16.2.2 22.1-5.6 46.8-8.6 72.1-8.6 63.6 0 131.2 18.9 171.1 62.4z"/><path class="st0" d="M510.4 319.5c-14.3 8.7-28.7 12-43.2 12-23.1 0-46.4-8.4-69.4-16.9 4-6.5 8.6-12.7 13.7-18.3h1.4c14.9 0 38.7 11 50.6 17.6l.6-.7c-34.4-40.9-123.2-47.6-180.7-47.7-5.7 0-11.2.1-16.2.2 22.1-5.6 46.8-8.6 72.1-8.6 63.6 0 131.2 18.9 171.1 62.4zM544.4 440.6c-15.6 13.3-34.2 20.2-54.4 22.6 12.2-29.7 24.8-61.9 55.3-76.5 1.6 8.7 2.5 17.5 2.5 26.4 0 9.3-1 18.6-3.4 27.5z"/><path class="st0" d="M544.4 440.6c-15.6 13.3-34.2 20.2-54.4 22.6 12.2-29.7 24.8-61.9 55.3-76.5 1.6 8.7 2.5 17.5 2.5 26.4 0 9.3-1 18.6-3.4 27.5zM464.4 239.5l17.6-6.2 13.4 15.2-1.6-19.8 17-7.5-18.5-6.1-2.9-19.7-9.9 16-18.8-4.8 12.5 16z"/><path class="st2" d="M370.6 253.7l12.2-6 10.2 9-2-13.4 11.8-6.9-13.5-2.3-2.9-13.3-6.3 12.1-13.5-1.4 9.5 9.8zM233.1 280.8l8-4 6.7 5.9-1.3-8.8 7.8-4.5-8.9-1.6-1.9-8.7-4.2 7.9-8.9-.9 6.3 6.5z"/><g><path class="st3" d="M537.5 402.4v-1.6l-11.3 19 3.3-16.7-.8-.4c-16.6 20.2-23 34.7-28.2 52.5l-.3.8.8-.3c18.7-6.5 28.3-14 32.3-17.1l.1-.1v-.1c2.8-6 4.1-18.2 4.1-33.2v-2.8zM499.5 358.3c-18.2 3.7-39.4 5.9-58.8 5.9-2.9 0-5.8 0-8.6-.1l41.7-12.3-.1-.9c-27.5-1.3-48.8-1.8-75.6-14.4l-.4-.2-.2.4c-4 7.2-6.3 17.2-6.3 27.4 0 5.8.7 11.6 2.3 17l.1.3h3c12 0 61.4-1.3 103.2-22.2l-.3-.9zM508.7 392.1c-21 15.6-36.8 28.2-67.8 34.1 28.7-14.9 47.9-25.2 66-43.5l-.6-.7c-32.1 18.7-73.9 26.7-103.3 27.8h-.8l.4.7c24.3 38.4 55 41.8 65 41.8h.1c2.1 0 3.2-.1 3.3-.1h.2l.1-.2c13-20.6 21.3-40.4 38.1-59.2l-.7-.7z"/></g><path d="M563 318.8c-2.8 3-5.4 5.6-8.1 8-3-6.5-6.5-12.7-10.6-18.5 2.1-2.6 4.2-5.2 6.1-8 5.1 5.8 9.6 12.5 12.6 18.5m11 40.8c-3.2.4-6.2.9-9.2 1.5-.7-4.8-1.6-9.6-2.8-14.2 3.2-2.7 6.3-5.5 9.4-8.4 1.8 6.9 2.6 13.4 2.6 21.1m-10.3 43.5l-.1-1.6c1.3-6.7 2.1-13.4 2.3-20 1.8-.5 3.5-.8 5.4-1.2-2 8.3-4.4 15.7-7.6 22.8m-76.5-138.9c-1.5-.8-3.1-1.6-4.7-2.3 24.8 7.4 41.5 16.9 50.9 24.2-1.4 2.1-3 4.2-4.7 6.2-11.4-11.9-25.5-21.6-41.5-28.1" fill-rule="evenodd" clip-rule="evenodd" fill="#fff"/></svg>