<svg data-name="Layer 3" xmlns="http://www.w3.org/2000/svg" viewBox="0 0 648 648"><defs><clipPath id="a"><path fill="none" d="M36 156.87h576v334.25H36z"/></clipPath></defs><g clip-path="url(#a)"><path d="M146.35 421.6a32.21 32.21 0 01-5.33-.87c-17.94-7.76-8.63-26.38-3.3-38.5 6.89-15.61 14.06-31 21.33-46.45C120.27 347.9 82.45 360.7 45.89 374c-9.21 3.88-14.74-2.23-4.17-8.54a852 852 0 01122.47-64.19 375.6 375.6 0 01-25.89-72.53l-5-20.46c64.29-33.07 118.59-51.4 191.61-51.4s127.32 18.33 191.61 51.4c-1.16 4.94-2.42 9.79-3.78 14.64a819.16 819.16 0 0193.09 1.84c7.18.49 7.18 8.73.29 9.5q-50 7.14-101.62 16.39c-2.13 6.6-4.46 13.09-6.79 19.4A851.09 851.09 0 01605 254.23c8.92-.78 9 7.76 1.74 9.31q-61.08 18.76-124 41.41c-35.69 73.79-88.05 123.24-157.87 165-31-18.62-59.34-39.27-85.23-64.49-57.31 26.81-112.2 54.83-164.17 83.54-7.86 4.95-14.94.68-5.43-7.75a839.26 839.26 0 0176.31-59.64z" fill="#fff"/></g><path d="M73.14 484.92a840.45 840.45 0 01110.93-82.42c7.66-3.88 15.32-7.76 23-11.54 3.2-1.55 9.41-4.56 17.17-8.34q7.84 8.86 16.29 17.16C182 427.13 126.08 455.64 73.14 484.92zM490 276.63a836.57 836.57 0 01115.4-17.55c-41.31 12.7-83.49 26.76-126.16 42.18 3.78-8.05 7.37-16.19 10.76-24.63z" fill="#007dc2"/><path d="M44.34 369.43a846.75 846.75 0 01126.45-65.75c1.55 3.11 3.1 6.11 4.65 9.12-2.42 5-4.94 10.08-7.37 15.13-42.47 13.19-83.88 27.07-123.73 41.5zM506.4 228a816.33 816.33 0 0199 1.65q-51.35 7.28-104.63 17c1.94-6.11 3.78-12.32 5.62-18.62z" fill="#ee3b24"/><path d="M324.87 173.45c64.49 0 115.11 15.13 172.22 43.54-27.93 105.41-79 176.2-172.22 233.7-35-21.62-64.77-45.77-89.6-73.31 11.06-5.23 23.57-11.15 34.43-16.39 4.46.39 8.63.59 12.6.68-.19 6.11-2.13 10.57-5.23 13.68 1.74 2 3.58 4.07 5.43 6.1 4.85-4.36 7.95-10.66 8.14-19.78a170.79 170.79 0 0032.36-3.49c-.58 16.58-2.91 28.8-7.56 33.65-.2.19-.29.29-.29.39-1.17 1.26-2.23 2.33-3.11 3.1 4.56-.87 9-1.94 13.48-3.1 5.72-11.83 5.82-32.49 5.82-36.07 10.57-2.62 20-5.34 28.41-8.25.29 9.7 4.17 18.91 11.64 22.4 3.3-2.32 6.59-4.85 9.7-7.46-1.85.29-13.58 1.06-13.39-17.75 24.83-9.31 40.92-20.65 55.08-37.43a145.06 145.06 0 008.92-26.57c-17 26.76-32.68 42.47-63.22 54.69a131 131 0 014.94-19.59c8.93-3.78 18.23-8.14 23.86-10.47l13.38-14.06c3.39-13 6.69-26 10-38.88l-10.38 3.39 12.32-12.9c2.62-10.18 5.14-20.36 7.66-30.45-6.11.88-12.32 1.85-18.52 2.82a117.66 117.66 0 002.13-15.13c-3-.78-5.91-1.46-8.92-2.13a152.61 152.61 0 01-3.39 18.9l-.88.1a34.91 34.91 0 00-16.87 7.18l1.65-5q-14.84 2.61-29.67 5.52L346 235.42l.29-.87 3.2-8.25c-9.79 2-19.49 4.08-29.28 6.21-2-13.19-4.07-25.12-5.82-34.72-2.72.29-5.53.68-8.24 1.07 1.74 9.7 3.88 21.92 5.91 35.39l-6.88 1.56-8.82 9.19c-6.11-6.5-18.61-2.43-26.47-.39q-12.79 3.19-25.6 6.69-3.78 1-7.56 2.33a217.75 217.75 0 01-17.36-28.9l-.87-1.84c-2.62 1.07-5.14 2.13-7.66 3.3l1.06 2.23a226.62 226.62 0 0016.88 28.41 73.73 73.73 0 00-25 17.84s-11.93 12.51-13.38 14.06a80.37 80.37 0 00-8.17 11.27 403.9 403.9 0 01-30-82.72c57.4-28.7 108-43.83 172.6-43.83zM331.18 333c5.91-2.62 11.83-5.24 17.74-7.76l2.81-2.91a17.91 17.91 0 004.08.1 53.39 53.39 0 008.24-2.23 116.13 116.13 0 00-3.78 19c-8.44 3-17.94 5.81-28.71 8.53-.09-4.75-.19-9.7-.38-14.74zm-41.12 18.52l5.53-2.62 14.25-11.54 3.2-8.82c2 4.17 3.2 5.82 5.24 10.08l4.65-2c.2 4.56.29 8.92.29 13.19a164.27 164.27 0 01-33 3.78l-.19-2z" fill="#fff"/><path d="M359.59 195.08a370.8 370.8 0 0140.34 2.13c10.08 2.14 20.07 4.66 30 7.66a152.77 152.77 0 011.84 76.41c-17 26.77-32.68 42.48-63.22 54.7a131 131 0 014.94-19.59c8.93-3.78 18.23-8.15 23.86-10.47l13.38-14.07c3.39-13 6.69-26 10-38.88l-10.38 3.2 12.32-12.9c2.62-10.18 5.14-20.36 7.66-30.45-6.11.88-12.32 1.85-18.52 2.82a117.66 117.66 0 002.13-15.13c-3-.78-5.91-1.46-8.92-2.13a152.61 152.61 0 01-3.39 18.9l-.88.1a34.91 34.91 0 00-16.87 7.18l1.65-5q-14.84 2.61-29.67 5.52L346 235.42l.29-.87 3.2-8.25c-9.79 2-19.49 4.08-29.28 6.21-2-13.19-4.07-25.12-5.82-34.72a368.69 368.69 0 0145.19-2.71zm63.32 112.77a151.21 151.21 0 01-41.7 55.15c-1.84.29-13.57 1.07-13.38-17.75 24.73-9.4 40.82-20.65 55.08-37.43zm-51.39 62.55a152.44 152.44 0 01-46 21.92c5.72-11.84 5.82-32.49 5.82-36.08 10.57-2.62 20-5.33 28.41-8.24.39 9.79 4.27 19 11.74 22.4zm-59.45 25a139.1 139.1 0 01-14.15 1.94c-5.34-5.14-10.38-10.48-15.33-15.91 4.85-4.36 8-10.66 8.15-19.78a171 171 0 0032.39-3.49c-.58 16.58-2.91 28.8-7.57 33.65-.19.19-.29.29-.29.39a33 33 0 01-3.2 3.2zm-34.91-20c-3.68-4.17-7.27-8.53-10.76-12.89l3.3-1.56c4.46.39 8.63.59 12.6.68-.19 6.11-2 10.57-5.14 13.77zm-65.55-108.08a381.878 381.878 0 01-12.22-36q5.82-2.78 11.64-5.24l1.07 2.23a225.12 225.12 0 0016.9 28.44 74.65 74.65 0 00-17.36 10.57zm7.08-44.51a370.91 370.91 0 0187.56-24.05c1.75 9.7 3.88 21.92 5.92 35.4l-6.89 1.55-8.82 9.21c-6.11-6.5-18.62-2.42-26.47-.39q-12.81 3.21-25.6 6.69-3.78 1-7.57 2.33a216 216 0 01-17.35-28.9l-.78-1.84zM331.18 333c5.91-2.62 11.83-5.24 17.74-7.76l2.81-2.91a17.91 17.91 0 004.08.1 53.39 53.39 0 008.24-2.23 116.13 116.13 0 00-3.78 19c-8.44 3-17.94 5.81-28.71 8.53-.09-4.75-.19-9.7-.38-14.74zm-41.12 18.52l5.53-2.62 14.25-11.54 3.2-8.82c2 4.17 3.2 5.82 5.24 10.08l4.65-2c.2 4.56.29 8.92.29 13.19a164.27 164.27 0 01-33 3.78l-.19-2z" fill="#ee3b24"/><path d="M327.68 433.14a368.51 368.51 0 01-73-65l11.73-5.53c3.49 4.37 7.08 8.63 10.76 12.9 1.75 2 3.59 4.07 5.43 6.11a363.53 363.53 0 0051.88 47c-2.32 1.45-4.55 2.91-6.79 4.46zM198.42 280.32a392.47 392.47 0 01-20.17-54.6c47.81-22.59 97.36-34.71 149.92-36.17a365.86 365.86 0 0171.76 7.66 372.14 372.14 0 00-40.34-2.13 363.76 363.76 0 00-45.09 2.71c-2.72.29-5.53.68-8.25 1.07a365.73 365.73 0 00-87.56 24c-2.62 1.07-5.14 2.13-7.66 3.3q-5.82 2.46-11.64 5.23a374.81 374.81 0 0012.22 36 67.49 67.49 0 00-7.66 7.27l-5.53 5.63z" fill="#fcba30"/><path d="M138.79 210.79c61.77-31.81 116.07-49.17 186.08-49.17s124.22 17.36 186 49.17c-28.7 115.68-83.49 192.19-186 253.67-38.69-23.18-72.53-50.33-100.55-81.84-7.86 3.78-14.07 6.79-17.17 8.34-9.7 4.85-19.39 9.69-29 14.54-10.86 5.53-22.89 14-35.49 10.67-13.68-5.92-4.66-22.59-.49-32.1 10.67-23.95 21.72-47.71 33.36-71.27a372.58 372.58 0 01-32.49-85.33l-4.26-16.68zm186.08-37.34c-64.58 0-115.2 15.13-172.31 43.64 7.46 30.06 17.36 57.5 30 82.72a80.37 80.37 0 018.15-11.25c1.29-1.56 13.34-14.06 13.34-14.06a72.56 72.56 0 0125-17.85 207.66 207.66 0 01-16.88-28.41l-1.04-2.24c2.52-1.16 5.14-2.23 7.66-3.29l.87 1.84a217.64 217.64 0 0017.34 28.9q3.78-1.3 7.56-2.32 12.81-3.49 25.6-6.69c7.86-1.94 20.37-6.11 26.47.38l8.83-9.21 6.88-1.55c-2-13.48-4.17-25.7-5.91-35.39 2.71-.39 5.53-.78 8.24-1.07 1.75 9.6 3.78 21.53 5.82 34.72 9.79-2.14 19.49-4.17 29.28-6.21l-3.2 8.24-.29.87 9.8-10.37c9.89-1.94 19.78-3.69 29.67-5.53l-1.65 5c5.14-4.36 11.06-6.2 16.87-7.17l.88-.1a147.77 147.77 0 003.39-18.91c3 .68 6 1.36 8.92 2.14a135.42 135.42 0 01-2.13 15.12c6.11-1 12.31-1.84 18.52-2.81-2.52 10.18-5 20.36-7.66 30.45l-12.59 13.13 10.48-3.3c-3.3 13-6.7 26-10 38.89l-13.38 14.06c-5.63 2.33-14.94 6.79-23.86 10.47a134.05 134.05 0 00-4.94 19.59c30.54-12.22 46.25-27.93 63.22-54.69a147.65 147.65 0 01-8.92 26.57c-14.16 16.77-30.35 28.12-55.08 37.43-.19 18.81 11.54 18 13.38 17.74-3.1 2.62-6.4 5.14-9.69 7.47-7.37-3.39-11.25-12.7-11.64-22.4-8.44 2.91-17.84 5.53-28.41 8.24-.1 3.59-.2 24.24-5.82 36.08a130.19 130.19 0 01-13.48 3.1c.87-.78 1.94-1.84 3.1-3.1a1.35 1.35 0 01.29-.39c4.76-4.85 7.08-17.07 7.57-33.65a173.44 173.44 0 01-32.39 3.49c-.29 9-3.39 15.42-8.15 19.78-1.84-2-3.58-4.07-5.43-6.11 3.11-3.2 4.95-7.66 5.24-13.67-4-.1-8.24-.29-12.61-.68-11 5.14-23.46 11.06-34.42 16.39C260.19 405 290 429.07 325 450.79c93.09-57.51 144.29-128.2 172.22-233.6-57.22-28.61-107.86-43.74-172.35-43.74zM331.18 333c.19 5 .29 10 .29 14.74 10.76-2.72 20.26-5.53 28.7-8.53a117.2 117.2 0 013.78-19 53.09 53.09 0 01-8.24 2.23 14 14 0 01-4.07-.1l-2.82 2.91c-5.81 2.52-11.73 5.14-17.64 7.76zm-41.12 18.52l.29 2a163.51 163.51 0 0033-3.78c0-4.17-.1-8.63-.29-13.19l-4.65 2c-2-4.26-3.2-5.81-5.24-10.08l-3.2 8.82-14.26 11.54-5.62 2.62z" fill="#002d62"/><path d="M245.55 256.17c-14.54 4-27.54 10.18-37.91 21.62-5.92 6.79-10.19 14.65-14.16 22.69Q176 335.84 160 372c-2.81 6.3-11.34 21.53-2.23 25.5 10.09 2.62 22.69-5.81 31.52-10.37 9.7-4.95 19.3-9.8 29-14.55 16.49-8.14 31.32-18.13 41.41-34.13a156.91 156.91 0 009.89-21.24q9.45-23.27 19.3-46.54c2.42-5.82 6.69-13.09 5.33-19.4-2.71-8.53-17.07-3.29-23.37-1.74-8.34 2.13-16.87 4.36-25.31 6.69zm-18.42 88.63c-7.66 3.39-15.32 6.88-23 10.38 11.15-25.7 22.59-51.3 34.61-76.71 6.69-2.13 13.48-4.26 20.27-6.3-11 24.15-21.62 48.29-31.9 72.63zm131.49-115.2c-10.67 13.87-21.14 27.93-31.52 42 4.85-12.9 9.8-25.8 14.74-38.69-11 2.23-22 4.65-33 7.17-2.81 6.6-5.72 13.29-8.43 20 2.32-.68 4.75-1.36 7.08-1.94q-13 31.41-25.31 62.93c-3.4 8.54-6.79 17.17-10.09 25.7 11.06-5.24 22-10.38 33.16-15.42 5.05-13.87 10.09-27.64 15.23-41.4 4.65 9.4 9.31 18.81 14 28.31 7.08-3.2 14.26-6.3 21.43-9.41-4.36-9.89-8.82-19.87-13.18-29.77 7.95-12 15.9-24 23.95-35.87 2.23-.59 4.55-1.07 6.78-1.56 1.75-5.14 3.4-10.37 5.14-15.51-6.88 1-13.38 2.13-20 3.49zm42.66-7.37c-5.91 1-11.24 2.91-15.7 7.37-3.59 3.88-5.53 8.53-7.18 13.48l-14.25 44.51c-1.85 5.82-4.85 16.58 4.55 15.71a40.08 40.08 0 009.22-3.11c9.5-4.07 19-8 28.6-12q3.64-14 7.27-27.93c-5 1.55-10 3.2-15 4.75-1.16 4.17-2.32 8.44-3.49 12.61-3.49 1.26-7 2.52-10.47 3.88 4.36-15 8.82-30.06 13.19-45.09 3.1-.68 6.2-1.36 9.31-1.94-.78 2.62-1.46 5.23-2.23 8 4.46-1.07 9-2.13 13.48-3.2 1.74-6.79 3.39-13.58 5.13-20.36-7.46 1.06-14.93 2.23-22.4 3.39z" fill="#fff" fill-rule="evenodd"/><path d="M441.43 208.46c4.56 1.46 8.73 3 13 4.56 10.57 4 20 7.95 27.74 11.63-24 82.14-72.92 151-142.06 200l-5.63 3.87c-20.26-15.12-32.19-27.05-32.19-27.05l9.5-1.55a154.58 154.58 0 00126.93-177.59c-.2-1.07-.39-2.23-.59-3.3l-.09-.48-.1-.49-.1-.58-.09-.49-.1-.58-.1-.48-.1-.58-.09-.59-.1-.48-.1-.49-.19-.58-.1-.58-.09-.48-.3-.59-.09-.38c-.49-1.75-.87-3.3-1.26-4.76 2.13.68 4.26 1.36 6.3 2zm.78 1c4.26 1.45 8.63 3 12.7 4.56-4.27-1.65-8.44-3.11-12.7-4.56z" fill="#007dc2"/></svg>