<svg version="1.1" id="Layer_1" xmlns="http://www.w3.org/2000/svg" x="0" y="0" viewBox="0 0 648 648" xml:space="preserve"><style>.st0{fill:#006bb6}</style><path class="st0" d="M467.9 376.5c-24.5 0-49.6 9.8-62.8 30.3h-1 .5l2.5-35.5c1.4-24 6.9-89.3 40.2-89.3 16 0 12.4 21.2 14.2 30.9 4.4 22.6 14.3 48.5 45.2 48.5 21.1 0 43.2-14 43.2-42.5 0-44-36.8-72.9-81.5-72.9-114.7 0-160.8 87.5-160.8 193.6 0 92 35.8 171.5 134.3 171.5 64 0 115.8-45.5 115.8-122 .1-64.6-34.1-112.6-89.8-112.6zm-34 198.7c-27.4 0-26.2-35.1-26.2-75.6 0-40.5 3.8-75.5 26.2-75.5 27.5 0 29 35 29 75.5s-5.6 75.6-29 75.6z"/><path d="M89.1 244.1v136.6c76.5 11.3 167.9 3.8 232.4-90.6 2.7-4 4.3-1.2 2.6 2.3-18 36.7-60.7 70.7-97.6 99.6C191 419.9 96 519.6 97.2 607.3c.1 6.7.3 4.9 6.2.5 28.9-21.4 85.4-22.1 120.1-5.5 4.9 2.3 5.2 1.6 4.7-4.7-6.7-68 8.6-142.3 37.8-185.4 20.1-29.9 74.1-106.8 83.4-167.1 1-6.3-2.3-5.3-10.1 3-61.2 64.7-171.9 63.1-243.4-5.4-4.4-4.3-6.4-2.4-6.8 1.4" fill="#ed174c"/><g><path class="st0" d="M221.8 35.8l4.3 13.9h14.8l-12 8.8 4.4 13.7-11.5-8.4-11.8 8.4 4.4-13.8-12-8.7h14.8zM308.9 86.7l4.5 13.8h14.9l-12.1 8.8 4.4 13.7-11.6-8.5-11.7 8.5 4.5-13.7-12.2-8.8h14.9zM271.5 47.4l4.5 13.9h14.8l-12 8.8 4.4 13.7-11.6-8.5-11.7 8.5 4.4-13.8-12-8.7h14.8zM323.2 134.7l4.4 13.9h14.8l-11.9 8.7 4.3 13.7-11.5-8.5-11.7 8.5 4.5-13.7-12.2-8.7h14.8zM316.9 185.5l4.5 13.8h14.8l-12 8.9 4.4 13.7-11.6-8.5-11.6 8.5 4.3-13.8-12-8.8h14.8zM288.9 226l4.4 13.9h14.9l-12.1 8.8 4.4 13.6-11.5-8.4-11.7 8.4 4.4-13.6-12.1-8.8h14.9zM244.8 248.7l4.5 13.9H264l-12 8.8 4.5 13.7-11.6-8.4-11.7 8.4 4.4-13.7-12-8.8h14.8zM132.9 82.1L128.4 96h-14.7l11.9 8.8-4.4 13.7 11.6-8.5 11.7 8.5-4.4-13.7 12.1-8.8h-14.9zM169.4 47.4l-4.5 13.9h-14.8l12.1 8.8-4.5 13.7 11.7-8.5 11.6 8.5-4.3-13.8 12-8.7h-14.8zM115.9 128.5l-4.4 13.8H96.7l12 8.7-4.4 13.8 11.6-8.4 11.6 8.4-4.3-13.8 12.1-8.7h-14.8zM120.5 179.2l-4.5 13.9h-14.8l12 8.8-4.4 13.7 11.6-8.5 11.7 8.5-4.5-13.7 12-8.8h-14.8zM148.5 220.6l-4.5 14h-14.8l12 8.7-4.4 13.7 11.7-8.5 11.7 8.5-4.5-13.7 12-8.7h-14.8zM192.5 246.9l-4.4 14h-14.8l12 8.7-4.3 13.7 11.5-8.4 11.7 8.4-4.5-13.8 12.2-8.6H197z"/></g></svg>