<svg version="1.1" id="Layer_1" xmlns="http://www.w3.org/2000/svg" x="0" y="0" viewBox="0 0 648 648" xml:space="preserve"><style>.st0{fill:#ce1141}</style><path class="st0" d="M421.5 591.6c.5.5.7 1.3 1.1 1.2 1.5 0 4.5-.5 4.5-.5l3-1.3 8.4-3.3 21-10c.1-.1 3.7-2 3.7-2l1.9-.9 2.3-1.5 3.7-2.3 4.4-2.4 5.7-3.7 9.9-7 4.8-3.8 6.9-5 6.3-4.7 3-2.2 4.2-3.9 4.4-4.3 7-7.5 8.2-7.8 9.4-10.9 5.2-6.9 1.8-2.5 5.5-6.8 10.8-15.5 3.1-5.1 7.2-14.3 4.1-7.8 7-14.2 3.8-8.6 4.1-13.2s4.9-17.5 7.5-26.6c.3-1.1.4-2-.2-2.9-1.5-2.1-2.6-4.8-4-7.2-.7-1.2-1.8-2.5-2.5-3.5s-2.5-3.4-3.2-4.2c-.8-.9-1.7-1.7-2.6-2.4-2.3-2.1-4.2-4.2-6.1-5.6-.9-.5-1.7-1.1-2.6-1.8-5.9-4.5-11.8-8.2-18.6-11.1-2.8-1.2-5.7-2.2-8.6-3.3-2-.7-5.3-1.5-7.4-1.8-1.2-.2-2.2-.2-3.2.4-.9.6-1 2.1-1.1 3.5-.4 3.6-.5 7.6-.8 11.3-.4 3.8-.6 7.6-.9 11.4-.3 3.4-.5 6.9-.9 10.3-.5 4.5-1.2 9-2 13.5-1.6 8.4-3.4 16.7-5.1 25-.5 2.3-.8 4.7-1.7 6.8-1.5 3.5-2.6 7.2-3.3 10.9-1.5 7.9-4.4 15.4-7.1 22.8-2.2 6.1-4.4 12.3-7.8 17.9-.3.4-.4.8-.5 1.2-1.6 3.8-3.2 7.7-4.9 11.5-1.1 2.5-2.7 4.7-3.7 7.2-1.3 3.1-3.1 6-4.9 8.8-2.9 4.5-6 8.9-8.5 13.6-1.7 3.3-3.7 6.4-5.9 9.4-.6.8-1.1 1.6-1.6 2.4-1.7 2.6-3.3 5.2-5.3 7.6-3.6 4.6-7.4 9.3-11.3 13.7-2.4 2.8-5.1 5.4-7.6 8.1-2.3 2.4-4.6 4.9-6.9 7.3-.5.5-1.1.9-1.7 1.4-1.4 1.2-2.9 2.3-4.2 3.6-3 3-6.1 5.9-9.7 8.3-1.5 1-3.1 2-4.4 3.2-4.2 3.2-8.4 5.6-13.1 8M608.8 367.3c.2 0 .2-.2.2-.6.1-.7.2-2 .2-2l2-18.2 1.2-17 .1-17v-2.6l-2-19.2s-2.4-17.3-4.1-26.2c-.7-3.1-2.6-4.7-5.2-6-.9-.4-1.8-.9-2.7-1.1-1.9-.6-4-1.5-5.8-2-4.3-1.1-8.4-2.5-12.8-3.3-5.2-.9-10.5-1.4-15.7-1.9-4.3-.4-8.6-.5-13-.6-3.4 0-5.5-.1-9-.1-1.8 0-3.8.1-4.7 1.2-.8 1.2-.2 3.2.1 5.3.6 4.2 1.4 6.3 2.1 10.5 2.1 12.3 4.3 24.6 4.7 37.2.2 5.6.6 11.2.8 16.9 0 1.6 0 2.6.1 4.2 0 1 .3 2 .7 2.7.5.8 1.3.9 2.2 1.2 1.1.3 2.1.4 3.2.7 1.1.3 3.1.7 4.5 1.1 5 1.6 10.3 3.4 15.2 5.4 3.4 1.4 6.6 3.4 9.9 5.1.4.2.7.4 1.1.7 1.9 1.4 3.9 2.9 5.8 4.3 4.5 3.3 9.2 6.6 12.7 11.1.7.9 1.4 1.7 2.3 2.4 1.3 1.2 3.6 5.5 5.3 7.5.1.2.4.3.6.3M480.2 162.4c1.7-.1 3.3-.1 4.6-.3 1-.1 1.9-.1 2.3-1.2.4-1-.3-2.1-.6-2.6-.4-.9-3.7-6.7-3.7-6.7l-3.2-5-13.5-19.5-2.8-3.3-2.6-3.5-4.5-4.9-10.9-12-4.7-4.6-17-15.7-13.9-10.7-5-2.7-16.3-9.9-11.4-6.2-2.2-.9-9.3-3.4-13.8-5.2-1.1-.2-4.5-1.1-1.2-.2-3.9-1-8.2-1.5-3.8-.1-7.3-1.4-8.8-.6-3.1-.3-5.5-.1-9.2.2-9.1 1-7 .2-6.2.7-6.4 1.3-4.8 1.5-7.8 1.5-1.8-.1-7.3 2.6-4.3 1.2-2.6 1.6-6.4 1.7-3.1 1.8-3.9 1.5-9.5 3.9-12 4.7-4 1.9-8.4 4.6-7.3 4.8-6.9 3.6-2.5 1.4-7.5 4-1.2.8-8.5 6.7-7.1 4.8-1.4.9-8 6.3-2.9 2.4s-4.3 3.7-4.4 4.2l3-.9s5.5-2 5.6-2c.1 0 1.1.1 1.1.1l7.9-3.2h1.2l8.7-3.4s4.5-1.5 4.5-1.4c0 .1 4.6-1.7 4.6-1.7l6.5-2.3 15.6-6 1.4-.1 8-2.8 6.3-2.6.9.7s12.1.3 12.3.3l7.8.6.3.1 15.7 1.3.2-.1L266 87l.1.5 7.7 6.6h.6l7.9 7.6.7-.3 10.8.3.5-.4 27.2 1.6.2.6 12.1 7 .5-.1 21.4 10.4.2 1.1 12.1-4.7 17.8 6 3 4.9 6.5.4 6.3 7.1h.6l5.1 5.8.1.4h.7l14 3.2 5.2 8 13 4.7s13.9 3.6 21 4.5c6.5.9 14 .6 18.9.2M601.3 244.8c-.4-2.1-1.9-6.2-1.9-6.2l-.8-2.3-.7-2.8-2.3-6.9-2.1-6-6.7-14.8-3-7.3-3.8-8.4-4.6-7.5-1.1-2.2-3-6.1-2.8-4.6-1.2-1.6-19.4-26.3s-1.9-2.2-2.8-3.3c-.4-.6-.6-1-1.2-1h-.1s-6 9.8-8.5 12.5c-2.5 2.7-7.5 7.3-7.5 7.3s-4.2 3.5-4.9 4c-.7.5-3.9 2.7-3.9 2.7l-4.4 2.6s-3.3 1.5-3.9 1.8c-.5.2-1.2.4-1.5.9-.3.4-.4.8-.3 1.5.1.6.3 1.2.6 1.7 1.8 3.7 3.4 7.6 5.4 11.2 3 5.5 4.8 11.3 7.3 17 .8 1.9 1.6 3.8 2.3 5.7 1.6 5 3.2 10.1 4.8 15.1.7 2.2 1.4 4.5 2.1 6.7.6 2.2 1.2 4.5 1.8 6.8.4 1.5 1.4 2.2 2.9 2.2s2.9-.1 4.4-.1c5.2-.2 10.4-.3 15.6-.4 1.5 0 11.9.9 11.9.9s3.7.4 5.5.7c3.9.7 7.9 1.6 11.8 2.4 3.3.7 6.7 1.8 9.8 3.2 1.5.7 3.1 1.1 4.8 1.6.5.1 1.3.3 1.5.2-.3-.1-.1-.7-.1-.9"/><path class="st0" d="M533.3 128.7c-.2-.7-1.5-2.8-1.5-2.8l-1-1.8-2.8-3.2-1.9-2.7-3.5-3.5s-.8-.7-1.1-1c-6.2-5-18.6-15.1-18.6-15.1l-3.4-2.7-6.4-5.6L460.9 71l-25.4-12-13.5-5.3s-4.9-1.7-5-1.7c-.1 0-16.6-5.7-16.6-5.7l-11.7-3-11.4-2.4-1.8-.2-1 1 .4.5s1.1.6 1.7.8c3.5 1.4 7.1 2.7 10.6 4.1 2.3.9 4.5 2.2 6.9 2.8 1.6.5 3.2 1.1 4.6 1.9 5.4 3.1 10.8 6.2 16.1 9.4 3.2 1.9 6.2 4.2 8.9 6.8 2.1 1.9 4.3 3.7 6.8 5.1 1.1.6 2.1 1.6 3.1 2.4.5.5 1.1.9 1.7 1.4 3.1 2.6 6.6 4.8 9.4 7.9 3 3.2 6.1 6.3 9.3 9.3 3 2.9 6 5.8 8.5 9.1 2.1 2.7 4.3 5.4 6.7 7.9 4.7 4.6 8.2 10.1 12.5 15 .5.6.8 1.4 1.3 2.1 2.7 4.3 5.2 8.8 8.5 12.8 2.3 2.7 4.4 5.7 5.9 9 .9 2 2.3 3.8 3.5 5.6.7 1.1 1.9 1.6 2.6 1.5.6-.1 1.8-.6 1.8-.6l2.3-.9s3-1.3 4-1.8 3-1.6 3.7-2.3c.7-.7 3.7-2.8 5.5-4.3 1.7-1.6 5.1-5.6 5.1-5.6l2.5-3.3 4.3-7.2c-.1 0 .7-1.6.6-2.4M519.8 235.9c-1.7-5.4-3.1-10.4-5-15.7-1.6-4.3-2.8-8.8-4.8-13-1.2-2.5-1.8-5.2-2.8-7.8-.5-1.3-1.1-2.5-1.6-3.9-2.4-6.8-5.6-12.2-8.8-18.6-.1-.4-.3-.6-.6-1.2s-.6-1.1-1.4-1.6c-.8-.5-1.5-.2-2.9 0-2.7.3-6.2.7-7.6.7-1.3 0-6.7.4-11 .8l-1-.3H467l-13.9-1.8c-5.1-.7-16.7-3.6-16.7-3.6l-8.5-2.9-10.5-3.6-.8.4-16.4-1.3-.5.3-9.2-7-1.1-.1-5.7-5.2-.2-1.1-6.4-1-.6.3-5.2-1.8-.6-.5-12 .9-10.9-4.4-37.8 2-.6-.4-7.1.6-.7.5L283 147l-.5-.4-26.5 15.3-.3 1.1-1.2 1.1-.6-.4-13.3-1.3-.7.3-23.6.2-.5-.2-6.8-.2-2-1.2-24.7 19.1-.1.5-8.7 6.9-9.7-4.6-.6.3-3.6-1.1s-17.8 4.5-17.7 4.7c.2.1-16.6-2.7-16.6-2.7l-1.2-.9-3.2 3.2-6.6 3.2-.2.6-13.3 10.2-18.9 13.6-21.2 15.8-9.6 7-.5 4.1-4 9.3-1.7 8-2.9 16-1.6 7-.6 8.4-2.3 17.5-1 38.4 1 2.3.7 10.5s.2 1.8.6 1.9l47-48.6 15.4-6.2 12.9-.7 7.8-9 .8-1.7 1 .4 21.2-2.4.9-.7h7.9l1.2.4 2.6-3.4 9.5-5.9 10.2-7 28.5.4.2.6 11.2 1.1 8.7-1.7 16-16.3h.3l12.7-12.1 19.1-2.4.7-.5.9.8 9.9 4.7.7-.6 8.8-1.1.4-.5 8.2-1.4.7-.5 9 7.6.5-.6 18.3-.3 1.6-1.1 14.8.7.8.3 2.3-.6.4-.7 5.9-2.6h.7l6.8-3 .6-.6 7.3-2.7.5-.8 20.1-7.7.1-.3 3.6-1.1.8-.8 1 1.1 5.8 2.9h1.8l6.5 3.7.5-.6 2-1 .2.1 3.3-1.5.1-.2 4.7-1.1 12 3.1 2.5-.6 2.2 1.5 8.8 1.3 8.7 3.3 5-.3c.1 0 1.6 1.1 1.6 1.1l1.3-.7s17-2.1 25.6-2.8c5.5-.4 11.1-1 16.6-1.6 3.1-.3 6.2-.6 9.4-.9 1.7-.1 2.6-.8 1.9-2.8"/><path class="st0" d="M532.3 323.2c0-1.2-.2-1.9-.3-3.1-.2-3.3-.4-6.6-.5-9.8 0-1.1-.2-2.2-.3-3.3-.3-4.1-.4-8.2-.7-12.3-.5-5.2-1.3-10.3-2.1-15.4-.6-4-1.4-8-2.1-11.9-.8-4.1-1.4-7.9-2.3-12.1-.9-4.2-1.8-4.8-6.1-4.2-.3 0-.7.1-1.1.2-1.6.3-3.8.6-5.4.8-8.4 1.1-16.2 1.5-24.6 2.5l-24 8.4-34.6-.9-3.8-1.2v.6l-10.2 7.5-1.4.1-8.1 7.5-.4 1.1-20.7 2.7-18.9 14.6-2-.1-10.1 5.9-4 .5-3.9 3.4-1-.8-19.3-1.3-3.3 3.8.1.6-16.7 18.2-.2 1.1-.7.2-21.3 24.2-5.8.1-.5.6-17.5 3-1.4-.1s-.4.8-.4.9c-.1 0-28.8 16-28.8 16l-12.9-1.5-2.8 1-12.9-.8-12.7 13.8-7.6 1.3-4.3-.2-4.5 1.9-2.7-.3.2.6-15.9 12.3-1.5.3-24.8 19.3.2 1.1-15.4 37 .6 1.6-25.3 2.3-8.3 7.2-.8 2.7 11.3 15.6 8.3 12.7 7.1 9.2 11.7 12.7s.1.9.3 1c.2.1 1.5.2 1.6.2.1 0 7 2.3 7 2.4l8.6 2.7s.1.4.2.4l.9-.1 14.3 5.5h1.1l.8.9h1.3c.1 0 3.4 2.3 3.4 2.3l6-3.3h.3l2.7-1.7 21.7 5.5 15.9-8.1 35.3-3.5 14.5-23.3c2.3-2.3 6.4-6.5 6.4-6.5h.6s5-4.6 5.1-4.7v-.6l9.1-8.3 4.2-4.4s.9-.6 1.1-.6c.1 0 4.9-5.1 4.9-5.1l3.9-4.1 1-.2-1-3.6 4.1-14.9 7.9-2.4.3-.3 2.3-.5v-1.3l10.6-17.2 1-.4 4.4-8.5 7.2-4.1 1-1.2 1.4.2s4.2-2.5 4.3-2.4h.5l7.8-3.4.7-.9 25.9-11.9 1.5-.2.3-1.4 1-.8 2.7-9 8.2-3.5 9.5-1.2 8.6-6 12.3.5 1.2 1 .6-.8 17.1-7.7-.1-2.2 4.1-7.9 8.4-2.3.4-.5 11.5-2.4 4.4-5.2.6-.1 2.7-2.6c.1 0 7.9 1.1 7.9 1.1l.4.3 4.3.6 2.7.3s11.6-5.5 16.6-7.4c2.1-.8 4.1-1.3 6-2 2.7-1 5.4-1.9 8.1-2.8 1.4-.4 2.7-.8 4-1.2l5.4-1 6.3-1.1 3.9-.2s1.9-.2 2.6-.3c.7-.1 1.8-.1 2.6-.9s.8-1.5.9-2.2c0-.8.1-1.2.1-2.3"/><path class="st0" d="M532 345.9c0-.9.2-2.4-.6-3.2-.7-.8-1.7-.9-2.3-.9-.6 0-3.6.4-3.6.4l-5 .8c-.6.1-1.1.1-1.7.3-3 .7-6 1.3-9 2.2-3.3 1-6.7 1.8-9.8 3.2-3.3 1.5-7 2.6-10.3 4.2-1.2.6-12.3 6-17.4 8.5l-6.5 6.9-.2 1.5-.9-.4-4.1.2-.2.3-13.2 4.4.1 1.5-1.4 1.3v.9l-6.2 10.9h-.9l-.1 1.1s-1.3 2.1-2.7 4.4l-27.9 17.9h-.6l-4.2 3.5-2.9 11.8-2.7 2.6-10.9 40.2 1.5 4.6-16.1 7.7h-2.6l-3.1 14-.5.4-4 12.7.2.7-1.6 10.9-.6.8.6 1-15.5 24.5-1.1.3-3.8 6-.1 1.2-13.2 18.6c0-.1-14 8.3-14 8.3l.8 1.2c0 .2-.7 5.6-.7 5.6l1.2 2.1-2 .6-10.1 6-1.1-.2-14.8 8.8-1.8 2.8c0 .2 5.8.9 5.8.9l9.6.8 6.6.3 7.6.1 3.5.1 5.7.2 5.7-.2 20.7-2.5 12.3-2.2 9.3-2.5 10.1-2.9 12.9-5.1.9-.5 3.6-2.1s10.4-5.5 15.1-9c8-6.1 16.1-12 23.4-19 2.5-2.4 5-4.8 7.4-7.2l7-7c.4-.4.9-.8 1.1-1.3.8-1.9 2.3-3.2 3.7-4.6 1-1 2-2 2.7-3.2 1.6-2.5 3.9-4.3 6-6.4 1.6-1.6 3.2-3.5 4.5-5.4 2.4-3.5 4.7-7.1 7-10.6 3.1-4.7 6.5-9.3 9.2-14.3 2.9-5.3 5.6-10.6 8.7-15.8 2.5-4.4 5.1-8.9 7.1-13.6 3.3-7.8 6.6-15.5 9.6-23.4 3.2-8.4 5.7-16.9 8-25.6 1.7-6.4 2.7-13.1 5.1-19.3.3-.8.4-1.7.6-2.5.9-5.3 1.8-10.5 2.6-15.8.8-5 1.5-10 2.2-15 .5-3.4 1.1-6.8 1.3-10.2.4-4.7.6-9.5.8-14.3 0-.5.1-1.6.1-1.6s.1-1.5.1-2.4"/></svg>