<svg version="1.1" id="Layer_1" xmlns="http://www.w3.org/2000/svg" x="0" y="0" viewBox="0 0 648 648" xml:space="preserve"><style>.st2{fill:#fff}.st5{fill-rule:evenodd;clip-rule:evenodd;fill:#c4ced4}</style><pattern y="648" width="69" height="69" patternUnits="userSpaceOnUse" id="Unnamed_Pattern" viewBox="2.1 -70.9 69 69" overflow="visible"><path fill="none" d="M2.1-70.9h69v69h-69z"/><path fill="#f7bc60" d="M2.1-70.9h69v69h-69z"/><path class="st2" d="M61.8-71.7v.2c-.1.1-.1.1-.2.1-.1.1-.1.3-.1.4-.2.1 0 .2 0 .3v.2c0 .1 0 .3.1.4.1.2.3.4.4.5.2.1.4.6.6.6.2 0 .4-.1.5-.1.2 0 .4 0 .6-.1.2-.1.1-.3.3-.5.1-.1.3 0 .4-.1.2-.1.3-.3.4-.5v-.2c0-.1.1-.2.1-.3 0-.1-.1-.1-.1-.2v-.3c0-.2 0-.4-.1-.5-.4-.7-1.2-.9-2-.8-.2 0-.3.1-.4.2-.2.1-.1.2-.3.2-.1 0-.2.1-.2.2v.3c0 .1 0 .1 0 0M54.1-71.7v.2c-.1.1-.1.1-.2.1-.1.1-.1.3-.1.4-.2.1 0 .2 0 .3v.2c0 .1 0 .3.1.4.1.2.3.4.4.5.2.1.4.6.6.6.2 0 .4-.1.5-.1.2 0 .4 0 .6-.1.2-.1.1-.3.3-.5.1-.1.3 0 .4-.1.2-.1.3-.3.4-.5v-.2c0-.1.1-.2.1-.3 0-.1-.1-.1-.1-.2v-.3c0-.2 0-.4-.1-.5-.4-.7-1.2-.9-2-.8-.2 0-.3.1-.4.2-.2.1-.1.2-.3.2-.1 0-.2.1-.2.2v.3c0 .1 0 .1 0 0M46.4-71.7v.2c-.1.1-.1.1-.2.1-.1.1-.1.3-.1.4-.2.1 0 .2 0 .3v.2c0 .1 0 .3.1.4.1.2.3.4.4.5.2.1.4.6.6.6.2 0 .4-.1.5-.1.2 0 .4 0 .6-.1.2-.1.1-.3.3-.5.1-.1.3 0 .4-.1.2-.1.3-.3.4-.5v-.2c0-.1.1-.2.1-.3 0-.1-.1-.1-.1-.2v-.3c0-.2 0-.4-.1-.5-.4-.7-1.2-.9-2-.8-.2 0-.3.1-.4.2-.2.1-.1.2-.3.2-.1 0-.2.1-.2.2v.3c0 .1 0 .1 0 0M38.8-71.7v.2c-.1.1-.1.1-.2.1-.1.1-.1.3-.1.4-.2.1 0 .2 0 .3v.2c0 .1 0 .3.1.4.1.2.3.4.4.5.2.1.4.6.6.6.2 0 .4-.1.5-.1.2 0 .4 0 .6-.1.2-.1.1-.3.3-.5.1-.1.3 0 .4-.1.2-.1.3-.3.4-.5v-.2c0-.1.1-.2.1-.3 0-.1-.1-.1-.1-.2v-.3c0-.2 0-.4-.1-.5-.4-.7-1.2-.9-2-.8-.2 0-.3.1-.4.2-.2.1-.1.2-.3.2-.1 0-.2.1-.2.2v.3c0 .1 0 .1 0 0M31.1-71.7v.2c-.1.1-.1.1-.2.1-.1.1-.1.3-.1.4-.2.1 0 .2 0 .3v.2c0 .1 0 .3.1.4.1.2.3.4.4.5.2.1.4.6.6.6.2 0 .4-.1.5-.1.2 0 .4 0 .6-.1.2-.1.1-.3.3-.5.1-.1.3 0 .4-.1.2-.1.3-.3.4-.5v-.2c0-.1.1-.2.1-.3 0-.1-.1-.1-.1-.2v-.3c0-.2 0-.4-.1-.5-.4-.7-1.2-.9-2-.8-.2 0-.3.1-.4.2-.2.1-.1.2-.3.2-.1 0-.2.1-.2.2v.3c0 .1 0 .1 0 0M23.4-71.7v.2c-.1.1-.1.1-.2.1-.1.1-.1.3-.1.4-.2.1 0 .2 0 .3v.2c0 .1 0 .3.1.4.1.2.3.4.4.5.2.1.4.6.6.6.2 0 .4-.1.5-.1.2 0 .4 0 .6-.1.2-.1.1-.3.3-.5.1-.1.3 0 .4-.1.2-.1.3-.3.4-.5v-.2c0-.1.1-.2.1-.3 0-.1-.1-.1-.1-.2v-.3c0-.2 0-.4-.1-.5-.4-.7-1.2-.9-2-.8-.2 0-.3.1-.4.2-.2.1-.1.2-.3.2-.1 0-.2.1-.2.2v.3c0 .1 0 .1 0 0M15.8-71.7v.2c-.1.1-.1.1-.2.1-.1.1-.1.3-.1.4-.2.1 0 .2 0 .3v.2c0 .1 0 .3.1.4.1.2.3.4.4.5.2.1.4.6.6.6.2 0 .4-.1.5-.1.2 0 .4 0 .6-.1.2-.1.1-.3.3-.5.1-.1.3 0 .4-.1.2-.1.3-.3.4-.5v-.2c0-.1.1-.2.1-.3 0-.1-.1-.1-.1-.2v-.3c0-.2 0-.4-.1-.5-.4-.7-1.2-.9-2-.8-.2 0-.3.1-.4.2-.2.1-.1.2-.3.2-.1 0-.2.1-.2.2v.3c0 .1 0 .1 0 0M8.1-71.7v.2l-.2.2c-.1.1-.1.3-.1.4-.2.1 0 .2 0 .3v.2c0 .1 0 .3.1.4.1.2.3.4.4.5.2.1.4.6.6.6.2 0 .4-.1.5-.1.2 0 .4 0 .6-.1.2-.1.1-.3.3-.5.1-.1.3 0 .4-.1.2-.1.3-.3.4-.5v-.2c0-.1.1-.2.1-.3 0-.1-.1-.1-.1-.2v-.3c0-.2 0-.4-.1-.5-.4-.7-1.2-.9-2-.8-.2 0-.3.1-.4.2-.2.1-.1.2-.3.2-.1 0-.2.1-.2.2v.2c0 .1 0 .1 0 0M.4-71.7v.2c-.1.1-.1.1-.2.1-.1.1-.1.3-.1.4-.2.1 0 .2 0 .3v.2c0 .1 0 .3.1.4.1.2.3.4.4.5.2.2.4.6.6.7.2 0 .4-.1.5-.1.2 0 .4 0 .6-.1.2-.1.1-.3.3-.5.1-.1.3 0 .4-.1.2-.1.3-.3.4-.5v-.2c0-.1.1-.2.1-.3 0-.1-.1-.1-.1-.2v-.3c0-.2 0-.4-.1-.5-.4-.7-1.2-.9-2-.8-.2 0-.3.1-.4.2-.2.1-.1.2-.3.2-.1 0-.2.1-.2.2v.2c0 .1 0 .1 0 0"/><g><path class="st2" d="M69.4-71.7v.2c-.1.1-.1.1-.2.1-.1.1-.1.3-.1.4-.2.1 0 .2 0 .3v.2c0 .1 0 .3.1.4.1.2.3.4.4.5.2.1.4.6.6.6.2 0 .4-.1.5-.1.2 0 .4 0 .6-.1.2-.1.1-.3.3-.5.1-.1.3 0 .4-.1.2-.1.3-.3.4-.5v-.2c0-.1.1-.2.1-.3 0-.1-.1-.1-.1-.2v-.3c0-.2 0-.4-.1-.5-.4-.7-1.2-.9-2-.8-.2 0-.3.1-.4.2-.2.1-.1.2-.3.2-.1 0-.2.1-.2.2v.3c0 .1 0 .1 0 0"/></g><path class="st2" d="M.5-71.7v.2c-.1.1-.1.1-.2.1-.1.1-.1.3-.1.4-.2.1 0 .2 0 .3v.2c0 .1 0 .3.1.4.1.2.3.4.4.5.2.2.3.6.6.7.2 0 .4-.1.5-.1.2 0 .4 0 .6-.1.2-.1.1-.3.3-.5.1-.1.3 0 .4-.1.2-.1.3-.3.4-.5v-.2c0-.1.1-.2.1-.3 0-.1-.1-.1-.1-.2v-.3c0-.2 0-.4-.1-.5-.4-.7-1.2-.9-2-.8-.2 0-.3.1-.4.2-.2.1-.1.2-.3.2-.1 0-.2.1-.2.2v.2c0 .1 0 .1 0 0"/><g><path class="st2" d="M69.4-64v.2c-.1.1-.1.1-.2.1-.1.1-.1.3-.1.4-.2.1 0 .2 0 .3v.2c0 .1 0 .3.1.4.1.2.3.4.4.5.2.1.4.6.6.6.2 0 .4-.1.5-.1.2 0 .4 0 .6-.1.2-.1.1-.3.3-.5.1-.1.3 0 .4-.1.2-.1.3-.3.4-.5v-.2c0-.1.1-.2.1-.3 0-.1-.1-.1-.1-.2v-.3c0-.2 0-.4-.1-.5-.4-.7-1.2-.9-2-.8-.2 0-.3.1-.4.2-.2.1-.1.2-.3.2-.1 0-.2.1-.2.2v.3M61.8-64v.2c-.1.1-.1.1-.2.1-.1.1-.1.3-.1.4-.2.1 0 .2 0 .3v.2c0 .1 0 .3.1.4.1.2.3.4.4.5.2.1.4.6.6.6.2 0 .4-.1.5-.1.2 0 .4 0 .6-.1.2-.1.1-.3.3-.5.1-.1.3 0 .4-.1.2-.1.3-.3.4-.5v-.2c0-.1.1-.2.1-.3 0-.1-.1-.1-.1-.2v-.3c0-.2 0-.4-.1-.5-.4-.7-1.2-.9-2-.8-.2 0-.3.1-.4.2-.2.1-.1.2-.3.2-.1 0-.2.1-.2.2v.3M54.1-64v.2c-.1.1-.1.1-.2.1-.1.1-.1.3-.1.4-.2.1 0 .2 0 .3v.2c0 .1 0 .3.1.4.1.2.3.4.4.5.2.1.4.6.6.6.2 0 .4-.1.5-.1.2 0 .4 0 .6-.1.2-.1.1-.3.3-.5.1-.1.3 0 .4-.1.2-.1.3-.3.4-.5v-.2c0-.1.1-.2.1-.3 0-.1-.1-.1-.1-.2v-.3c0-.2 0-.4-.1-.5-.4-.7-1.2-.9-2-.8-.2 0-.3.1-.4.2-.2.1-.1.2-.3.2-.1 0-.2.1-.2.2v.3M46.5-64v.2c-.1.1-.1.1-.2.1-.1.1-.1.3-.1.4-.2.1 0 .2 0 .3v.2c0 .1 0 .3.1.4.1.2.3.4.4.5.2.1.4.6.6.6.2 0 .4-.1.5-.1.2 0 .4 0 .6-.1.2-.1.1-.3.3-.5.1-.1.3 0 .4-.1.2-.1.3-.3.4-.5v-.2c0-.1.1-.2.1-.3 0-.1-.1-.1-.1-.2v-.3c0-.2 0-.4-.1-.5-.4-.7-1.2-.9-2-.8-.2 0-.3.1-.4.2-.2.1-.1.2-.3.2-.1 0-.2.1-.2.2v.3M38.8-64v.2c-.1.1-.1.1-.2.1-.1.1-.1.3-.1.4-.2.1 0 .2 0 .3v.2c0 .1 0 .3.1.4.1.2.3.4.4.5.2.1.4.6.6.6.2 0 .4-.1.5-.1.2 0 .4 0 .6-.1.2-.1.1-.3.3-.5.1-.1.3 0 .4-.1.2-.1.3-.3.4-.5v-.2c0-.1.1-.2.1-.3 0-.1-.1-.1-.1-.2v-.3c0-.2 0-.4-.1-.5-.4-.7-1.2-.9-2-.8-.2 0-.3.1-.4.2-.2.1-.1.2-.3.2-.1 0-.2.1-.2.2v.3M31.1-64v.2c-.1.1-.1.1-.2.1-.1.1-.1.3-.1.4-.2.1 0 .2 0 .3v.2c0 .1 0 .3.1.4.1.2.3.4.4.5.2.1.4.6.6.6.2 0 .4-.1.5-.1.2 0 .4 0 .6-.1.2-.1.1-.3.3-.5.1-.1.3 0 .4-.1.2-.1.3-.3.4-.5v-.2c0-.1.1-.2.1-.3 0-.1-.1-.1-.1-.2v-.3c0-.2 0-.4-.1-.5-.4-.7-1.2-.9-2-.8-.2 0-.3.1-.4.2-.2.1-.1.2-.3.2-.1 0-.2.1-.2.2v.3M23.5-64v.2c-.1.1-.1.1-.2.1-.1.1-.1.3-.1.4-.2.1 0 .2 0 .3v.2c0 .1 0 .3.1.4.1.2.3.4.4.5.2.1.4.6.6.6.2 0 .4-.1.5-.1.2 0 .4 0 .6-.1.2-.1.1-.3.3-.5.1-.1.3 0 .4-.1.2-.1.3-.3.4-.5v-.2c0-.1.1-.2.1-.3 0-.1-.1-.1-.1-.2v-.3c0-.2 0-.4-.1-.5-.4-.7-1.2-.9-2-.8-.2 0-.3.1-.4.2-.2.1-.1.2-.3.2-.1 0-.2.1-.2.2v.3M15.8-64v.2c-.1.1-.1.1-.2.1-.1.1-.1.3-.1.4-.2.1 0 .2 0 .3v.2c0 .1 0 .3.1.4.1.2.3.4.4.5.2.1.4.6.6.6.2 0 .4-.1.5-.1.2 0 .4 0 .6-.1.2-.1.1-.3.3-.5.1-.1.3 0 .4-.1.2-.1.3-.3.4-.5v-.2c0-.1.1-.2.1-.3 0-.1-.1-.1-.1-.2v-.3c0-.2 0-.4-.1-.5-.4-.7-1.2-.9-2-.8-.2 0-.3.1-.4.2-.2.1-.1.2-.3.2-.1 0-.2.1-.2.2v.3M8.2-64v.2c-.1.1-.2.1-.2.1-.1.1-.1.3-.1.4-.2.1 0 .2 0 .3v.2c0 .1 0 .3.1.4 0 .2.2.4.3.5.2.1.4.6.6.6.2 0 .4-.1.5-.1.2 0 .4 0 .6-.1.2-.1.1-.3.3-.5.1-.1.3 0 .4-.1.2-.1.3-.3.4-.5v-.2c0-.1.1-.2.1-.3 0-.1-.1-.1-.1-.2v-.3c0-.2 0-.4-.1-.5-.4-.7-1.2-.9-2-.8-.2 0-.3.1-.4.2-.2.1-.1.2-.3.2-.1 0-.2.1-.2.2.1.3.1.2.1.3-.1 0-.1 0 0 0M.5-64v.2c-.1.1-.1.1-.2.1-.1.1-.1.3-.1.4-.2.1 0 .2 0 .3v.2c0 .1 0 .3.1.4.1.2.3.4.4.5.2.1.4.6.6.6.2 0 .4-.1.5-.1.2 0 .4 0 .6-.1.2-.1.1-.3.3-.5.1 0 .3.1.4 0 .2-.1.3-.3.4-.5v-.2c0-.1.1-.2.1-.3 0-.1-.1-.1-.1-.2v-.3c0-.2 0-.4-.1-.5-.4-.7-1.2-.9-2-.8-.2 0-.3.1-.4.2-.2.1-.1.2-.3.2-.1 0-.2.1-.2.2v.2"/><g><path class="st2" d="M69.4-56.3v.2c-.1.1-.1.1-.2.1-.1.1-.1.3-.1.4-.2.1 0 .2 0 .3v.2c0 .1 0 .3.1.4.1.2.3.4.4.5.2.1.4.6.6.6.2 0 .4-.1.5-.1.2 0 .4 0 .6-.1.2-.1.1-.3.3-.5.1-.1.3 0 .4-.1.2-.1.3-.3.4-.5v-.2c0-.1.1-.2.1-.3 0-.1-.1-.1-.1-.2v-.3c0-.2 0-.4-.1-.5-.4-.7-1.2-.9-2-.8-.2 0-.3.1-.4.2-.2.1-.1.2-.3.2-.1 0-.2.1-.2.2v.3M61.8-56.3v.2c-.1.1-.1.1-.2.1-.1.1-.1.3-.1.4-.2.1 0 .2 0 .3v.2c0 .1 0 .3.1.4.1.2.3.4.4.5.2.1.4.6.6.6.2 0 .4-.1.5-.1.2 0 .4 0 .6-.1.2-.1.1-.3.3-.5.1-.1.3 0 .4-.1.2-.1.3-.3.4-.5v-.2c0-.1.1-.2.1-.3 0-.1-.1-.1-.1-.2v-.3c0-.2 0-.4-.1-.5-.4-.7-1.2-.9-2-.8-.2 0-.3.1-.4.2-.2.1-.1.2-.3.2-.1 0-.2.1-.2.2v.3M54.1-56.3v.2c-.1 0-.1 0-.2.1s-.1.3-.1.4c-.2.1 0 .2 0 .3v.2c0 .1 0 .3.1.4.1.2.3.4.4.5.2.1.4.6.6.6.2 0 .4-.1.5-.1.2 0 .4 0 .6-.1.2-.1.1-.3.3-.5.1-.1.3 0 .4-.1.2-.1.3-.3.4-.5v-.2c0-.1.1-.2.1-.3 0-.1-.1-.1-.1-.2v-.3c0-.2 0-.4-.1-.5-.4-.7-1.2-.9-2-.8-.2 0-.3.1-.4.2-.2.1-.1.2-.3.2-.1 0-.2.1-.2.2v.3M46.5-56.3v.2c-.1.1-.1.1-.2.1-.1.1-.1.3-.1.4-.2.1 0 .2 0 .3v.2c0 .1 0 .3.1.4.1.2.3.4.4.5.2.1.4.6.6.6.2 0 .4-.1.5-.1.2 0 .4 0 .6-.1.2-.1.1-.3.3-.5.1-.1.3 0 .4-.1.2-.1.3-.3.4-.5v-.2c0-.1.1-.2.1-.3 0-.1-.1-.1-.1-.2v-.3c0-.2 0-.4-.1-.5-.4-.7-1.2-.9-2-.8-.2 0-.3.1-.4.2-.2.1-.1.2-.3.2-.1 0-.2.1-.2.2v.3M38.8-56.3v.2c-.1.1-.1.1-.2.1-.1.1-.1.3-.1.4-.2.1 0 .2 0 .3v.2c0 .1 0 .3.1.4.1.2.3.4.4.5.2.1.4.6.6.6.2 0 .4-.1.5-.1.2 0 .4 0 .6-.1.2-.1.1-.3.3-.5.1-.1.3 0 .4-.1.2-.1.3-.3.4-.5v-.2c0-.1.1-.2.1-.3 0-.1-.1-.1-.1-.2v-.3c0-.2 0-.4-.1-.5-.4-.7-1.2-.9-2-.8-.2 0-.3.1-.4.2-.2.1-.1.2-.3.2-.1 0-.2.1-.2.2v.3M31.1-56.3v.2c-.1.1-.1.1-.2.1-.1.1-.1.3-.1.4-.2.1 0 .2 0 .3v.2c0 .1 0 .3.1.4.1.2.3.4.4.5.2.1.4.6.6.6.2 0 .4-.1.5-.1.2 0 .4 0 .6-.1.2-.1.1-.3.3-.5.1-.1.3 0 .4-.1.2-.1.3-.3.4-.5v-.2c0-.1.1-.2.1-.3 0-.1-.1-.1-.1-.2v-.3c0-.2 0-.4-.1-.5-.4-.7-1.2-.9-2-.8-.2 0-.3.1-.4.2-.2.1-.1.2-.3.2-.1 0-.2.1-.2.2v.3M23.5-56.3v.2c-.1.1-.1.1-.2.1-.1.1-.1.3-.1.4-.2.1 0 .2 0 .3v.2c0 .1 0 .3.1.4.1.2.3.4.4.5.2.1.4.6.6.6.2 0 .4-.1.5-.1.2 0 .4 0 .6-.1.2-.1.1-.3.3-.5.1-.1.3 0 .4-.1.2-.1.3-.3.4-.5v-.2c0-.1.1-.2.1-.3 0-.1-.1-.1-.1-.2v-.3c0-.2 0-.4-.1-.5-.4-.7-1.2-.9-2-.8-.2 0-.3.1-.4.2-.2.1-.1.2-.3.2-.1 0-.2.1-.2.2v.3M15.8-56.3v.2c-.1.1-.1.1-.2.1-.1.1-.1.3-.1.4-.2.1 0 .2 0 .3v.2c0 .1 0 .3.1.4.1.2.3.4.4.5.2.1.4.6.6.6.2 0 .4-.1.5-.1.2 0 .4 0 .6-.1.2-.1.1-.3.3-.5.1-.1.3 0 .4-.1.2-.1.3-.3.4-.5v-.2c0-.1.1-.2.1-.3 0-.1-.1-.1-.1-.2v-.3c0-.2 0-.4-.1-.5-.4-.7-1.2-.9-2-.8-.2 0-.3.1-.4.2-.2.1-.1.2-.3.2-.1 0-.2.1-.2.2v.3M8.2-56.3v.2c-.1 0-.2 0-.2.1-.1.1-.1.3-.1.4-.2.1 0 .2 0 .3v.2c0 .1 0 .3.1.4.1.2.3.4.4.5.2.1.4.6.6.6.2 0 .4-.1.5-.1.2 0 .4 0 .6-.1.2-.1.1-.3.3-.5.1-.1.3 0 .4-.1.2-.1.3-.3.4-.5v-.2c0-.1.1-.2.1-.3 0-.1-.1-.1-.1-.2v-.3c0-.2 0-.4-.1-.5-.4-.7-1.2-.9-2-.8-.2 0-.3.1-.4.2-.2.1-.1.2-.3.2-.1 0-.2.1-.2.2v.3c-.1 0-.1 0 0 0M.5-56.3v.2c-.1.1-.1.1-.2.1-.1.1-.1.3-.1.4-.2.1 0 .2 0 .3v.2c0 .1 0 .3.1.4.1.2.3.4.4.5.2.1.4.6.6.6.2 0 .4-.1.5-.1.2 0 .4 0 .6-.1.2-.1.1-.3.3-.5.1-.1.3 0 .4-.1.2-.1.3-.3.4-.5v-.2c0-.1.1-.2.1-.3 0-.1-.1-.1-.1-.2v-.3c0-.2 0-.4-.1-.5-.4-.7-1.2-.9-2-.8-.2 0-.3.1-.4.2-.2.1-.1.2-.3.2-.1 0-.2.1-.2.2v.3"/></g><g><path class="st2" d="M69.4-48.7v.2c-.1.1-.1.1-.2.1-.1.1-.1.3-.1.4-.2.1 0 .2 0 .3v.2c0 .1 0 .3.1.4.1.2.3.4.4.5.2.1.4.6.6.6.2 0 .4-.1.5-.1.2 0 .4 0 .6-.1.2-.1.1-.3.3-.5.1-.1.3 0 .4-.1.2-.1.3-.3.4-.5v-.2c0-.1.1-.2.1-.3 0-.1-.1-.1-.1-.2v-.3c0-.2 0-.4-.1-.5-.4-.7-1.2-.9-2-.8-.2 0-.3.1-.4.2-.2.1-.1.2-.3.2-.1 0-.2.1-.2.2v.3M61.8-48.7v.2c-.1.1-.1.1-.2.1-.1.1-.1.3-.1.4-.2.1 0 .2 0 .3v.2c0 .1 0 .3.1.4.1.2.3.4.4.5.2.1.4.6.6.6.2 0 .4-.1.5-.1.2 0 .4 0 .6-.1.2-.1.1-.3.3-.5.1-.1.3 0 .4-.1.2-.1.3-.3.4-.5v-.2c0-.1.1-.2.1-.3 0-.1-.1-.1-.1-.2v-.3c0-.2 0-.4-.1-.5-.4-.7-1.2-.9-2-.8-.2 0-.3.1-.4.2-.2.1-.1.2-.3.2-.1 0-.2.1-.2.2v.3M54.1-48.7v.2c-.1.1-.1.1-.2.1-.1.1-.1.3-.1.4-.2.1 0 .2 0 .3v.2c0 .1 0 .3.1.4.1.2.3.4.4.5.2.1.4.6.6.6.2 0 .4-.1.5-.1.2 0 .4 0 .6-.1.2-.1.1-.3.3-.5.1-.1.3 0 .4-.1.2-.1.3-.3.4-.5v-.2c0-.1.1-.2.1-.3 0-.1-.1-.1-.1-.2v-.3c0-.2 0-.4-.1-.5-.4-.7-1.2-.9-2-.8-.2 0-.3.1-.4.2-.2.1-.1.2-.3.2-.1 0-.2.1-.2.2v.3M46.5-48.7v.2c-.1.1-.1.1-.2.1-.1.1-.1.3-.1.4-.2.1 0 .2 0 .3v.2c0 .1 0 .3.1.4.1.2.3.4.4.5.2.1.4.6.6.6.2 0 .4-.1.5-.1.2 0 .4 0 .6-.1.2-.1.1-.3.3-.5.1-.1.3 0 .4-.1.2-.1.3-.3.4-.5v-.2c0-.1.1-.2.1-.3 0-.1-.1-.1-.1-.2v-.3c0-.2 0-.4-.1-.5-.4-.7-1.2-.9-2-.8-.2 0-.3.1-.4.2-.2.1-.1.2-.3.2-.1 0-.2.1-.2.2v.3M38.8-48.7v.2c-.1.1-.1.1-.2.1-.1.1-.1.3-.1.4-.2.1 0 .2 0 .3v.2c0 .1 0 .3.1.4.1.2.3.4.4.5.2.1.4.6.6.6.2 0 .4-.1.5-.1.2 0 .4 0 .6-.1.2-.1.1-.3.3-.5.1-.1.3 0 .4-.1.2-.1.3-.3.4-.5v-.2c0-.1.1-.2.1-.3 0-.1-.1-.1-.1-.2v-.3c0-.2 0-.4-.1-.5-.4-.7-1.2-.9-2-.8-.2 0-.3.1-.4.2-.2.1-.1.2-.3.2-.1 0-.2.1-.2.2v.3M31.1-48.7v.2c-.1.1-.1.1-.2.1-.1.1-.1.3-.1.4-.2.1 0 .2 0 .3v.2c0 .1 0 .3.1.4.1.2.3.4.4.5.2.1.4.6.6.6.2 0 .4-.1.5-.1.2 0 .4 0 .6-.1.2-.1.1-.3.3-.5.1-.1.3 0 .4-.1.2-.1.3-.3.4-.5v-.2c0-.1.1-.2.1-.3 0-.1-.1-.1-.1-.2v-.3c0-.2 0-.4-.1-.5-.4-.7-1.2-.9-2-.8-.2 0-.3.1-.4.2-.2.1-.1.2-.3.2-.1 0-.2.1-.2.2v.3M23.5-48.7v.2c-.1.1-.1.1-.2.1-.1.1-.1.3-.1.4-.2.1 0 .2 0 .3v.2c0 .1 0 .3.1.4.1.2.3.4.4.5.2.1.4.6.6.6.2 0 .4-.1.5-.1.2 0 .4 0 .6-.1.2-.1.1-.3.3-.5.1-.1.3 0 .4-.1.2-.1.3-.3.4-.5v-.2c0-.1.1-.2.1-.3 0-.1-.1-.1-.1-.2v-.3c0-.2 0-.4-.1-.5-.4-.7-1.2-.9-2-.8-.2 0-.3.1-.4.2-.2.1-.1.2-.3.2-.1 0-.2.1-.2.2v.3M15.8-48.7v.2c-.1.1-.1.1-.2.1-.1.1-.1.3-.1.4-.2.1 0 .2 0 .3v.2c0 .1 0 .3.1.4.1.2.3.4.4.5.2.1.4.6.6.6.2 0 .4-.1.5-.1.2 0 .4 0 .6-.1.2-.1.1-.3.3-.5.1-.1.3 0 .4-.1.2-.1.3-.3.4-.5v-.2c0-.1.1-.2.1-.3 0-.1-.1-.1-.1-.2v-.3c0-.2 0-.4-.1-.5-.4-.7-1.2-.9-2-.8-.2 0-.3.1-.4.2-.2.1-.1.2-.3.2-.1 0-.2.1-.2.2v.3M8.2-48.7v.2c-.1.1-.2.1-.2.1-.1.1-.1.3-.1.4-.2.1 0 .2 0 .3v.2c0 .1 0 .3.1.4.1.2.3.4.4.5.1.2.3.6.5.6s.4-.1.5-.1c.2 0 .4 0 .6-.1.2-.1.1-.3.3-.5.1-.1.3 0 .4-.1.2-.1.3-.3.4-.5v-.2c0-.1.1-.2.1-.3 0-.1-.1-.1-.1-.2v-.3c0-.2 0-.4-.1-.5-.4-.7-1.2-.9-2-.8-.2 0-.3.1-.4.2-.2.1-.1.2-.3.2-.1 0-.2.1-.2.2.1.3.1.2.1.3-.1 0-.1 0 0 0M.5-48.7v.2c-.1.1-.1.1-.2.1-.1.1-.1.3-.1.4-.2.1 0 .2 0 .3v.2c0 .1 0 .3.1.4.1.2.3.4.4.5.2.2.3.6.6.6.2 0 .4-.1.5-.1.2 0 .4 0 .6-.1.2-.1.1-.3.3-.5.1-.1.3 0 .4-.1.2-.1.3-.3.4-.5v-.2c0-.1.1-.2.1-.3 0-.1-.1-.1-.1-.2v-.3c0-.2 0-.4-.1-.5-.4-.7-1.2-.9-2-.8-.2 0-.3.1-.4.2-.2.1-.1.2-.3.2-.1 0-.2.1-.2.2v.3"/></g><g><path class="st2" d="M69.4-41v.2c-.1.1-.1.1-.2.1-.1.1-.1.3-.1.4-.2.1 0 .2 0 .3v.2c0 .1 0 .3.1.4.1.2.3.4.4.5.2.1.4.6.6.6.2 0 .4-.1.5-.1.2 0 .4 0 .6-.1.2-.1.1-.3.3-.5.1-.1.3 0 .4-.1.2-.1.3-.3.4-.5v-.2c0-.1.1-.2.1-.3 0-.1-.1-.1-.1-.2v-.3c0-.2 0-.4-.1-.5-.4-.7-1.2-.9-2-.8-.2 0-.3.1-.4.2-.2.1-.1.2-.3.2-.1 0-.2.1-.2.2v.3M61.8-41v.2c-.1.1-.1.1-.2.1-.1.1-.1.3-.1.4-.2.1 0 .2 0 .3v.2c0 .1 0 .3.1.4.1.2.3.4.4.5.2.1.4.6.6.6.2 0 .4-.1.5-.1.2 0 .4 0 .6-.1.2-.1.1-.3.3-.5.1-.1.3 0 .4-.1.2-.1.3-.3.4-.5v-.2c0-.1.1-.2.1-.3 0-.1-.1-.1-.1-.2v-.3c0-.2 0-.4-.1-.5-.4-.7-1.2-.9-2-.8-.2 0-.3.1-.4.2-.2.1-.1.2-.3.2-.1 0-.2.1-.2.2v.3M54.1-41v.2c-.1.1-.1.1-.2.1-.1.1-.1.3-.1.4-.2.1 0 .2 0 .3v.2c0 .1 0 .3.1.4.1.2.3.4.4.5.2.1.4.6.6.6.2 0 .4-.1.5-.1.2 0 .4 0 .6-.1.2-.1.1-.3.3-.5.1-.1.3 0 .4-.1.2-.1.3-.3.4-.5v-.2c0-.1.1-.2.1-.3 0-.1-.1-.1-.1-.2v-.3c0-.2 0-.4-.1-.5-.4-.7-1.2-.9-2-.8-.2 0-.3.1-.4.2-.2.1-.1.2-.3.2-.1 0-.2.1-.2.2v.3M46.5-41v.2c-.1.1-.1.1-.2.1-.1.1-.1.3-.1.4-.2.1 0 .2 0 .3v.2c0 .1 0 .3.1.4.1.2.3.4.4.5.2.1.4.6.6.6.2 0 .4-.1.5-.1.2 0 .4 0 .6-.1.2-.1.1-.3.3-.5.1-.1.3 0 .4-.1.2-.1.3-.3.4-.5v-.2c0-.1.1-.2.1-.3 0-.1-.1-.1-.1-.2v-.3c0-.2 0-.4-.1-.5-.4-.7-1.2-.9-2-.8-.2 0-.3.1-.4.2-.2.1-.1.2-.3.2-.1 0-.2.1-.2.2v.3M38.8-41v.2c-.1.1-.1.1-.2.1-.1.1-.1.3-.1.4-.2.1 0 .2 0 .3v.2c0 .1 0 .3.1.4.1.2.3.4.4.5.2.1.4.6.6.6.2 0 .4-.1.5-.1.2 0 .4 0 .6-.1.2-.1.1-.3.3-.5.1-.1.3 0 .4-.1.2-.1.3-.3.4-.5v-.2c0-.1.1-.2.1-.3 0-.1-.1-.1-.1-.2v-.3c0-.2 0-.4-.1-.5-.4-.7-1.2-.9-2-.8-.2 0-.3.1-.4.2-.2.1-.1.2-.3.2-.1 0-.2.1-.2.2v.3M31.1-41v.2c-.1.1-.1.1-.2.1-.1.1-.1.3-.1.4-.2.1 0 .2 0 .3v.2c0 .1 0 .3.1.4.1.2.3.4.4.5.2.1.4.6.6.6.2 0 .4-.1.5-.1.2 0 .4 0 .6-.1.2-.1.1-.3.3-.5.1-.1.3 0 .4-.1.2-.1.3-.3.4-.5v-.2c0-.1.1-.2.1-.3 0-.1-.1-.1-.1-.2v-.3c0-.2 0-.4-.1-.5-.4-.7-1.2-.9-2-.8-.2 0-.3.1-.4.2-.2.1-.1.2-.3.2-.1 0-.2.1-.2.2v.3M23.5-41v.2c-.1.1-.1.1-.2.1-.1.1-.1.3-.1.4-.2.1 0 .2 0 .3v.2c0 .1 0 .3.1.4.1.2.3.4.4.5.2.1.4.6.6.6.2 0 .4-.1.5-.1.2 0 .4 0 .6-.1.2-.1.1-.3.3-.5.1-.1.3 0 .4-.1.2-.1.3-.3.4-.5v-.2c0-.1.1-.2.1-.3 0-.1-.1-.1-.1-.2v-.3c0-.2 0-.4-.1-.5-.4-.7-1.2-.9-2-.8-.2 0-.3.1-.4.2-.2.1-.1.2-.3.2-.1 0-.2.1-.2.2v.3M15.8-41v.2c-.1.1-.1.1-.2.1-.1.1-.1.3-.1.4-.2.1 0 .2 0 .3v.2c0 .1 0 .3.1.4.1.2.3.4.4.5.2.1.4.6.6.6.2 0 .4-.1.5-.1.2 0 .4 0 .6-.1.2-.1.1-.3.3-.5.1-.1.3 0 .4-.1.2-.1.3-.3.4-.5v-.2c0-.1.1-.2.1-.3 0-.1-.1-.1-.1-.2v-.3c0-.2 0-.4-.1-.5-.4-.7-1.2-.9-2-.8-.2 0-.3.1-.4.2-.2.1-.1.2-.3.2-.1 0-.2.1-.2.2v.3M8.2-41v.2c-.1 0-.2 0-.2.1-.1.1-.1.3-.1.4-.2.1 0 .2 0 .3v.2c0 .1 0 .3.1.4.1.2.3.4.4.5.2.1.4.6.6.6.2 0 .4-.1.5-.1.2 0 .4 0 .6-.1.2-.1.1-.3.3-.5.1-.1.3 0 .4-.1.2-.1.3-.3.4-.5v-.2c0-.1.1-.2.1-.3 0-.1-.1-.1-.1-.2v-.3c0-.2 0-.4-.1-.5-.4-.7-1.2-.9-2-.8-.2 0-.3.1-.4.2-.2.1-.1.2-.3.2-.1 0-.2.1-.2.2v.3c-.1 0-.1 0 0 0M.5-41v.2c-.1.1-.1.1-.2.1-.1.1-.1.3-.1.4-.2.1 0 .2 0 .3v.2c0 .1 0 .3.1.4.1.2.3.4.4.5.2.1.4.6.6.6.2 0 .4-.1.5-.1.2 0 .4 0 .6-.1.2-.1.1-.3.3-.5h.4c.2-.1.3-.3.4-.5v-.2c0-.1.1-.2.1-.3 0-.1-.1-.1-.1-.2v-.3c0-.2 0-.4-.1-.5-.4-.7-1.2-.9-2-.8-.2 0-.3.1-.4.2-.2.1-.1.2-.3.2-.1 0-.2.1-.2.2v.2"/></g><g><path class="st2" d="M69.4-33.4v.2c-.1.1-.1.1-.2.1-.1.1-.1.3-.1.4-.2.1 0 .2 0 .3v.2c0 .1 0 .3.1.4.1.2.3.4.4.5.2.1.4.6.6.6.2 0 .4-.1.5-.1.2 0 .4 0 .6-.1.2-.1.1-.3.3-.5.1-.1.3 0 .4-.1.2-.1.3-.3.4-.5v-.2c0-.1.1-.2.1-.3 0-.1-.1-.1-.1-.2v-.3c0-.2 0-.4-.1-.5-.4-.7-1.2-.9-2-.8-.2 0-.3.1-.4.2-.2.1-.1.2-.3.2-.1 0-.2.1-.2.2v.3M61.8-33.4v.2c-.1.1-.1.1-.2.1-.1.1-.1.3-.1.4-.2.1 0 .2 0 .3v.2c0 .1 0 .3.1.4.1.2.3.4.4.5.2.1.4.6.6.6.2 0 .4-.1.5-.1.2 0 .4 0 .6-.1.2-.1.1-.3.3-.5.1-.1.3 0 .4-.1.2-.1.3-.3.4-.5v-.2c0-.1.1-.2.1-.3 0-.1-.1-.1-.1-.2v-.3c0-.2 0-.4-.1-.5-.4-.7-1.2-.9-2-.8-.2 0-.3.1-.4.2-.2.1-.1.2-.3.2-.1 0-.2.1-.2.2v.3M54.1-33.4v.2c-.1.1-.1.1-.2.1-.1.1-.1.3-.1.4-.2.1 0 .2 0 .3v.2c0 .1 0 .3.1.4.1.2.3.4.4.5.2.1.4.6.6.6.2 0 .4-.1.5-.1.2 0 .4 0 .6-.1.2-.1.1-.3.3-.5.1-.1.3 0 .4-.1.2-.1.3-.3.4-.5v-.2c0-.1.1-.2.1-.3 0-.1-.1-.1-.1-.2v-.3c0-.2 0-.4-.1-.5-.4-.7-1.2-.9-2-.8-.2 0-.3.1-.4.2-.2.1-.1.2-.3.2-.1 0-.2.1-.2.2v.3M46.5-33.4v.2c-.1.1-.1.1-.2.1-.1.1-.1.3-.1.4-.2.1 0 .2 0 .3v.2c0 .1 0 .3.1.4.1.2.3.4.4.5.2.1.4.6.6.6.2 0 .4-.1.5-.1.2 0 .4 0 .6-.1.2-.1.1-.3.3-.5.1-.1.3 0 .4-.1.2-.1.3-.3.4-.5v-.2c0-.1.1-.2.1-.3 0-.1-.1-.1-.1-.2v-.3c0-.2 0-.4-.1-.5-.4-.7-1.2-.9-2-.8-.2 0-.3.1-.4.2-.2.1-.1.2-.3.2-.1 0-.2.1-.2.2v.3M38.8-33.4v.2c-.1.1-.1.1-.2.1-.1.1-.1.3-.1.4-.2.1 0 .2 0 .3v.2c0 .1 0 .3.1.4.1.2.3.4.4.5.2.1.4.6.6.6.2 0 .4-.1.5-.1.2 0 .4 0 .6-.1.2-.1.1-.3.3-.5.1-.1.3 0 .4-.1.2-.1.3-.3.4-.5v-.2c0-.1.1-.2.1-.3 0-.1-.1-.1-.1-.2v-.3c0-.2 0-.4-.1-.5-.4-.7-1.2-.9-2-.8-.2 0-.3.1-.4.2-.2.1-.1.2-.3.2-.1 0-.2.1-.2.2v.3M31.1-33.4v.2c-.1.1-.1.1-.2.1-.1.1-.1.3-.1.4-.2.1 0 .2 0 .3v.2c0 .1 0 .3.1.4.1.2.3.4.4.5.2.1.4.6.6.6.2 0 .4-.1.5-.1.2 0 .4 0 .6-.1.2-.1.1-.3.3-.5.1-.1.3 0 .4-.1.2-.1.3-.3.4-.5v-.2c0-.1.1-.2.1-.3 0-.1-.1-.1-.1-.2v-.3c0-.2 0-.4-.1-.5-.4-.7-1.2-.9-2-.8-.2 0-.3.1-.4.2-.2.1-.1.2-.3.2-.1 0-.2.1-.2.2v.3M23.5-33.4v.2c-.1.1-.1.1-.2.1-.1.1-.1.3-.1.4-.2.1 0 .2 0 .3v.2c0 .1 0 .3.1.4.1.2.3.4.4.5.2.1.4.6.6.6.2 0 .4-.1.5-.1.2 0 .4 0 .6-.1.2-.1.1-.3.3-.5.1-.1.3 0 .4-.1.2-.1.3-.3.4-.5v-.2c0-.1.1-.2.1-.3 0-.1-.1-.1-.1-.2v-.3c0-.2 0-.4-.1-.5-.4-.7-1.2-.9-2-.8-.2 0-.3.1-.4.2-.2.1-.1.2-.3.2-.1 0-.2.1-.2.2v.3M15.8-33.4v.2c-.1.1-.1.1-.2.1-.1.1-.1.3-.1.4-.2.1 0 .2 0 .3v.2c0 .1 0 .3.1.4.1.2.3.4.4.5.2.1.4.6.6.6.2 0 .4-.1.5-.1.2 0 .4 0 .6-.1.2-.1.1-.3.3-.5.1-.1.3 0 .4-.1.2-.1.3-.3.4-.5v-.2c0-.1.1-.2.1-.3 0-.1-.1-.1-.1-.2v-.3c0-.2 0-.4-.1-.5-.4-.7-1.2-.9-2-.8-.2 0-.3.1-.4.2-.2.1-.1.2-.3.2-.1 0-.2.1-.2.2v.3M8.2-33.4v.2c-.1.1-.2.1-.2.1-.1.1-.1.3-.1.4-.2.1 0 .2 0 .3v.2c0 .1 0 .3.1.4.1.2.3.4.4.5.2.1.4.6.6.6.2 0 .4-.1.5-.1.2 0 .4 0 .6-.1.2-.1.1-.3.3-.5.1-.1.3 0 .4-.1.2-.1.3-.3.4-.5v-.2c0-.1.1-.2.1-.3 0-.1-.1-.1-.1-.2v-.3c0-.2 0-.4-.1-.5-.4-.7-1.2-.9-2-.8-.2 0-.3.1-.4.2-.2.1-.1.2-.3.2-.1 0-.2.1-.2.2v.3c-.1 0-.1 0 0 0M.5-33.4v.2c-.1.1-.1.1-.2.1-.1.1-.1.3-.1.4-.2.1 0 .2 0 .3v.2c0 .1 0 .3.1.4.1.2.3.4.4.5.2.1.4.6.6.6.2 0 .4-.1.5-.1.2 0 .4 0 .6-.1.2-.1.1-.3.3-.5.1-.1.3 0 .4-.1.2-.1.3-.3.4-.5v-.2c0-.1.1-.2.1-.3 0-.1-.1-.1-.1-.2v-.3c0-.2 0-.4-.1-.5-.4-.7-1.2-.9-2-.8-.2 0-.3.1-.4.2-.2.1-.1.2-.3.2-.1 0-.2.1-.2.2v.3"/></g><g><path class="st2" d="M69.4-25.7v.2c-.1.1-.1.1-.2.1-.1.1-.1.3-.1.4-.2.1 0 .2 0 .3v.2c0 .1 0 .3.1.4.1.2.3.4.4.5.2.1.4.6.6.6.2 0 .4-.1.5-.1.2 0 .4 0 .6-.1.2-.1.1-.3.3-.5.1-.1.3 0 .4-.1.2-.1.3-.3.4-.5v-.2c0-.1.1-.2.1-.3 0-.1-.1-.1-.1-.2v-.3c0-.2 0-.4-.1-.5-.4-.7-1.2-.9-2-.8-.2 0-.3.1-.4.2-.2.1-.1.2-.3.2-.1 0-.2.1-.2.2v.3M61.8-25.7v.2c-.1.1-.1.1-.2.1-.1.1-.1.3-.1.4-.2.1 0 .2 0 .3v.2c0 .1 0 .3.1.4.1.2.3.4.4.5.2.1.4.6.6.6.2 0 .4-.1.5-.1.2 0 .4 0 .6-.1.2-.1.1-.3.3-.5.1-.1.3 0 .4-.1.2-.1.3-.3.4-.5v-.2c0-.1.1-.2.1-.3 0-.1-.1-.1-.1-.2v-.3c0-.2 0-.4-.1-.5-.4-.7-1.2-.9-2-.8-.2 0-.3.1-.4.2-.2.1-.1.2-.3.2-.1 0-.2.1-.2.2v.3M54.1-25.7v.2c-.1.1-.1.1-.2.1-.1.1-.1.3-.1.4-.2.1 0 .2 0 .3v.2c0 .1 0 .3.1.4.1.2.3.4.4.5.2.1.4.6.6.6.2 0 .4-.1.5-.1.2 0 .4 0 .6-.1.2-.1.1-.3.3-.5.1-.1.3 0 .4-.1.2-.1.3-.3.4-.5v-.2c0-.1.1-.2.1-.3 0-.1-.1-.1-.1-.2v-.3c0-.2 0-.4-.1-.5-.4-.7-1.2-.9-2-.8-.2 0-.3.1-.4.2-.2.1-.1.2-.3.2-.1 0-.2.1-.2.2v.3M46.5-25.7v.2c-.1.1-.1.1-.2.1-.1.1-.1.3-.1.4-.2.1 0 .2 0 .3v.2c0 .1 0 .3.1.4.1.2.3.4.4.5.2.1.4.6.6.6.2 0 .4-.1.5-.1.2 0 .4 0 .6-.1.2-.1.1-.3.3-.5.1-.1.3 0 .4-.1.2-.1.3-.3.4-.5v-.2c0-.1.1-.2.1-.3 0-.1-.1-.1-.1-.2v-.3c0-.2 0-.4-.1-.5-.4-.7-1.2-.9-2-.8-.2 0-.3.1-.4.2-.2.1-.1.2-.3.2-.1 0-.2.1-.2.2v.3M38.8-25.7v.2c-.1.1-.1.1-.2.1-.1.1-.1.3-.1.4-.2.1 0 .2 0 .3v.2c0 .1 0 .3.1.4.1.2.3.4.4.5.2.1.4.6.6.6.2 0 .4-.1.5-.1.2 0 .4 0 .6-.1.2-.1.1-.3.3-.5.1-.1.3 0 .4-.1.2-.1.3-.3.4-.5v-.2c0-.1.1-.2.1-.3 0-.1-.1-.1-.1-.2v-.3c0-.2 0-.4-.1-.5-.4-.7-1.2-.9-2-.8-.2 0-.3.1-.4.2-.2.1-.1.2-.3.2-.1 0-.2.1-.2.2v.3M31.1-25.7v.2c-.1.1-.1.1-.2.1-.1.1-.1.3-.1.4-.2.1 0 .2 0 .3v.2c0 .1 0 .3.1.4.1.2.3.4.4.5.2.1.4.6.6.6.2 0 .4-.1.5-.1.2 0 .4 0 .6-.1.2-.1.1-.3.3-.5.1-.1.3 0 .4-.1.2-.1.3-.3.4-.5v-.2c0-.1.1-.2.1-.3 0-.1-.1-.1-.1-.2v-.3c0-.2 0-.4-.1-.5-.4-.7-1.2-.9-2-.8-.2 0-.3.1-.4.2-.2.1-.1.2-.3.2-.1 0-.2.1-.2.2v.3M23.5-25.7v.2c-.1.1-.1.1-.2.1-.1.1-.1.3-.1.4-.2.1 0 .2 0 .3v.2c0 .1 0 .3.1.4.1.2.3.4.4.5.2.1.4.6.6.6.2 0 .4-.1.5-.1.2 0 .4 0 .6-.1.2-.1.1-.3.3-.5.1-.1.3 0 .4-.1.2-.1.3-.3.4-.5v-.2c0-.1.1-.2.1-.3 0-.1-.1-.1-.1-.2v-.3c0-.2 0-.4-.1-.5-.4-.7-1.2-.9-2-.8-.2 0-.3.1-.4.2-.2.1-.1.2-.3.2-.1 0-.2.1-.2.2v.3M15.8-25.7v.2c-.1.1-.1.1-.2.1-.1.1-.1.3-.1.4-.2.1 0 .2 0 .3v.2c0 .1 0 .3.1.4.1.2.3.4.4.5.2.1.4.6.6.6.2 0 .4-.1.5-.1.2 0 .4 0 .6-.1.2-.1.1-.3.3-.5.1-.1.3 0 .4-.1.2-.1.3-.3.4-.5v-.2c0-.1.1-.2.1-.3 0-.1-.1-.1-.1-.2v-.3c0-.2 0-.4-.1-.5-.4-.7-1.2-.9-2-.8-.2 0-.3.1-.4.2-.2.1-.1.2-.3.2-.1 0-.2.1-.2.2v.3M8.2-25.7v.2c-.1.1-.2 0-.2.1-.1.1-.1.3-.1.4-.2.1 0 .2 0 .3v.2c0 .1 0 .3.1.4 0 .1.2.3.3.5.2.1.4.6.6.6.2 0 .4-.1.5-.1.2 0 .4 0 .6-.1.2-.1.1-.3.3-.5.1-.1.3 0 .4-.1.2-.1.3-.3.4-.5v-.2c0-.1.1-.2.1-.3 0-.1-.1-.1-.1-.2v-.3c0-.2 0-.4-.1-.5-.4-.7-1.2-.9-2-.8-.2 0-.3.1-.4.2-.2.1-.1.2-.3.2-.1 0-.2.1-.2.2.1.2.1.2.1.3-.1 0-.1 0 0 0M.5-25.7v.2c-.1.1-.1.1-.2.1-.1.1-.1.3-.1.4-.2.1 0 .2 0 .3v.2c0 .1 0 .3.1.4.1.2.3.4.4.5.2.1.3.5.6.6.2 0 .4-.1.5-.1.2 0 .4 0 .6-.1.2-.1.1-.3.3-.5.1-.1.3 0 .4-.1.2-.1.3-.3.4-.5v-.2c0-.1.1-.2.1-.3 0-.1-.1-.1-.1-.2v-.3c0-.2 0-.4-.1-.5-.4-.7-1.2-.9-2-.8-.2 0-.3.1-.4.2-.2.1-.1.2-.3.2-.1 0-.2.1-.2.2v.3"/></g><g><path class="st2" d="M69.4-18.1v.2c-.1.1-.1.1-.2.1-.1.1-.1.3-.1.4-.2.1 0 .2 0 .3v.2c0 .1 0 .3.1.4.1.2.3.4.4.5.2.1.4.6.6.6.2 0 .4-.1.5-.1.2 0 .4 0 .6-.1.2-.1.1-.3.3-.5.1-.1.3 0 .4-.1.2-.1.3-.3.4-.5v-.2c0-.1.1-.2.1-.3 0-.1-.1-.1-.1-.2v-.3c0-.2 0-.4-.1-.5-.4-.7-1.2-.9-2-.8-.2 0-.3.1-.4.2-.2.1-.1.2-.3.2-.1 0-.2.1-.2.2v.3c0 .1 0 0 0 0M61.8-18.1v.2c-.1.1-.1.1-.2.1-.1.1-.1.3-.1.4-.2.1 0 .2 0 .3v.2c0 .1 0 .3.1.4.1.2.3.4.4.5.2.1.4.6.6.6.2 0 .4-.1.5-.1.2 0 .4 0 .6-.1.2-.1.1-.3.3-.5.1-.1.3 0 .4-.1.2-.1.3-.3.4-.5v-.2c0-.1.1-.2.1-.3 0-.1-.1-.1-.1-.2v-.3c0-.2 0-.4-.1-.5-.4-.7-1.2-.9-2-.8-.2 0-.3.1-.4.2-.2.1-.1.2-.3.2-.1 0-.2.1-.2.2v.3c0 .1 0 0 0 0M54.1-18.1v.2c-.1.1-.1.1-.2.1-.1.1-.1.3-.1.4-.2.1 0 .2 0 .3v.2c0 .1 0 .3.1.4.1.2.3.4.4.5.2.1.4.6.6.6.2 0 .4-.1.5-.1.2 0 .4 0 .6-.1.2-.1.1-.3.3-.5.1-.1.3 0 .4-.1.2-.1.3-.3.4-.5v-.2c0-.1.1-.2.1-.3 0-.1-.1-.1-.1-.2v-.3c0-.2 0-.4-.1-.5-.4-.7-1.2-.9-2-.8-.2 0-.3.1-.4.2-.2.1-.1.2-.3.2-.1 0-.2.1-.2.2v.3c0 .1 0 0 0 0M46.5-18.1v.2c-.1.1-.1.1-.2.1-.1.1-.1.3-.1.4-.2.1 0 .2 0 .3v.2c0 .1 0 .3.1.4.1.2.3.4.4.5.2.1.4.6.6.6.2 0 .4-.1.5-.1.2 0 .4 0 .6-.1.2-.1.1-.3.3-.5.1-.1.3 0 .4-.1.2-.1.3-.3.4-.5v-.2c0-.1.1-.2.1-.3 0-.1-.1-.1-.1-.2v-.3c0-.2 0-.4-.1-.5-.4-.7-1.2-.9-2-.8-.2 0-.3.1-.4.2-.2.1-.1.2-.3.2-.1 0-.2.1-.2.2v.3c0 .1 0 0 0 0M38.8-18.1v.2c-.1.1-.1.1-.2.1-.1.1-.1.3-.1.4-.2.1 0 .2 0 .3v.2c0 .1 0 .3.1.4.1.2.3.4.4.5.2.1.4.6.6.6.2 0 .4-.1.5-.1.2 0 .4 0 .6-.1.2-.1.1-.3.3-.5.1-.1.3 0 .4-.1.2-.1.3-.3.4-.5v-.2c0-.1.1-.2.1-.3 0-.1-.1-.1-.1-.2v-.3c0-.2 0-.4-.1-.5-.4-.7-1.2-.9-2-.8-.2 0-.3.1-.4.2-.2.1-.1.2-.3.2-.1 0-.2.1-.2.2v.3c0 .1 0 0 0 0M31.1-18.1v.2c-.1.1-.1.1-.2.1-.1.1-.1.3-.1.4-.2.1 0 .2 0 .3v.2c0 .1 0 .3.1.4.1.2.3.4.4.5.2.1.4.6.6.6.2 0 .4-.1.5-.1.2 0 .4 0 .6-.1.2-.1.1-.3.3-.5.1-.1.3 0 .4-.1.2-.1.3-.3.4-.5v-.2c0-.1.1-.2.1-.3 0-.1-.1-.1-.1-.2v-.3c0-.2 0-.4-.1-.5-.4-.7-1.2-.9-2-.8-.2 0-.3.1-.4.2-.2.1-.1.2-.3.2-.1 0-.2.1-.2.2v.3c0 .1 0 0 0 0M23.5-18.1v.2c-.1.1-.1.1-.2.1-.1.1-.1.3-.1.4-.2.1 0 .2 0 .3v.2c0 .1 0 .3.1.4.1.2.3.4.4.5.2.1.4.6.6.6.2 0 .4-.1.5-.1.2 0 .4 0 .6-.1.2-.1.1-.3.3-.5.1-.1.3 0 .4-.1.2-.1.3-.3.4-.5v-.2c0-.1.1-.2.1-.3 0-.1-.1-.1-.1-.2v-.3c0-.2 0-.4-.1-.5-.4-.7-1.2-.9-2-.8-.2 0-.3.1-.4.2-.2.1-.1.2-.3.2-.1 0-.2.1-.2.2v.3c0 .1 0 0 0 0M15.8-18.1v.2c-.1.1-.1.1-.2.1-.1.1-.1.3-.1.4-.2.1 0 .2 0 .3v.2c0 .1 0 .3.1.4.1.2.3.4.4.5.2.1.4.6.6.6.2 0 .4-.1.5-.1.2 0 .4 0 .6-.1.2-.1.1-.3.3-.5.1-.1.3 0 .4-.1.2-.1.3-.3.4-.5v-.2c0-.1.1-.2.1-.3 0-.1-.1-.1-.1-.2v-.3c0-.2 0-.4-.1-.5-.4-.7-1.2-.9-2-.8-.2 0-.3.1-.4.2-.2.1-.1.2-.3.2-.1 0-.2.1-.2.2v.3c0 .1 0 0 0 0M8.2-18.1v.2c-.1.1-.2.1-.2.1-.1.1-.1.3-.1.4-.2.1 0 .2 0 .3v.2c0 .1 0 .3.1.4 0 .2.2.4.3.5.2.1.4.6.6.6.2 0 .4-.1.5-.1.2 0 .4 0 .6-.1.2-.1.1-.3.3-.5.1-.1.3 0 .4-.1.2-.1.3-.3.4-.5v-.2c0-.1.1-.2.1-.3 0-.1-.1-.1-.1-.2v-.3c0-.2 0-.4-.1-.5-.4-.7-1.2-.9-2-.8-.2 0-.3.1-.4.2-.2.1-.1.2-.3.2-.1 0-.2.1-.2.2.1.3.1.2.1.3-.1.1-.1 0 0 0M.5-18.1v.2c-.1.1-.1.1-.2.1-.1.1-.1.3-.1.4-.2.1 0 .2 0 .3v.2c0 .1 0 .3.1.4.1.2.3.4.4.5.2.1.4.6.6.6.2 0 .4-.1.5-.1.2 0 .4 0 .6-.1.2-.1.1-.3.3-.5.1 0 .3.1.4.1.2-.1.3-.3.4-.5v-.2c0-.1.1-.2.1-.3 0-.1-.1-.1-.1-.2v-.3c0-.2 0-.4-.1-.5-.4-.7-1.2-.9-2-.8-.2 0-.3.1-.4.2-.2.1-.1.2-.3.2-.1 0-.2.1-.2.2v.1c0 .1 0 0 0 0"/></g><g><path class="st2" d="M69.4-10.4v.2c-.1.1-.1.1-.2.1-.1.1-.1.3-.1.4-.2.1 0 .2 0 .3v.2c0 .1 0 .3.1.4.1.2.3.4.4.5.2.1.4.6.6.6.2 0 .4-.1.5-.1.2 0 .4 0 .6-.1.2-.1.1-.3.3-.5.1-.1.3 0 .4-.1.2-.1.3-.3.4-.5v-.2c0-.1.1-.2.1-.3 0-.1-.1-.1-.1-.2v-.3c0-.2 0-.4-.1-.5-.4-.7-1.2-.9-2-.8-.2 0-.3.1-.4.2-.2.1-.1.2-.3.2-.1 0-.2.1-.2.2v.3M61.8-10.4v.2c-.1.1-.1.1-.2.1-.1.1-.1.3-.1.4-.2.1 0 .2 0 .3v.2c0 .1 0 .3.1.4.1.2.3.4.4.5.2.1.4.6.6.6.2 0 .4-.1.5-.1.2 0 .4 0 .6-.1.2-.1.1-.3.3-.4.1-.1.3 0 .4-.1.2-.1.3-.3.4-.5v-.2c0-.1.1-.2.1-.3 0-.1-.1-.1-.1-.2v-.3c0-.2 0-.4-.1-.5-.4-.7-1.2-.9-2-.8-.2 0-.3.1-.4.2-.2.1-.1.2-.3.2-.1 0-.2.1-.2.2v.2M54.1-10.4v.2c-.1.1-.1.1-.2.1-.1.1-.1.3-.1.4-.2.1 0 .2 0 .3v.2c0 .1 0 .3.1.4.1.2.3.4.4.5.2.1.4.6.6.6.2 0 .4-.1.5-.1.2 0 .4 0 .6-.1.2-.1.1-.3.3-.5.1-.1.3 0 .4-.1.2-.1.3-.3.4-.5v-.2c0-.1.1-.2.1-.3 0-.1-.1-.1-.1-.2v-.3c0-.2 0-.4-.1-.5-.4-.7-1.2-.9-2-.8-.2 0-.3.1-.4.2-.2.1-.1.2-.3.2-.1 0-.2.1-.2.2v.3M46.5-10.4v.2c-.1.1-.1.1-.2.1-.1.1-.1.3-.1.4-.2.1 0 .2 0 .3v.2c0 .1 0 .3.1.4.1.2.3.4.4.5.2.1.4.6.6.6.2 0 .4-.1.5-.1.2 0 .4 0 .6-.1.2-.1.1-.3.3-.5.1-.1.3 0 .4-.1.2-.1.3-.3.4-.5v-.2c0-.1.1-.2.1-.3 0-.1-.1-.1-.1-.2v-.3c0-.2 0-.4-.1-.5-.4-.7-1.2-.9-2-.8-.2 0-.3.1-.4.2-.2.1-.1.2-.3.2-.1 0-.2.1-.2.2v.3M38.8-10.4v.2c-.1.1-.1.1-.2.1-.1.1-.1.3-.1.4-.2.1 0 .2 0 .3v.2c0 .1 0 .3.1.4.1.2.3.4.4.5.2.1.4.6.6.6.2 0 .4-.1.5-.1.2 0 .4 0 .6-.1.2-.1.1-.3.3-.4.1-.1.3 0 .4-.1.2-.1.3-.3.4-.5v-.2c0-.1.1-.2.1-.3 0-.1-.1-.1-.1-.2v-.3c0-.2 0-.4-.1-.5-.4-.7-1.2-.9-2-.8-.2 0-.3.1-.4.2-.2.1-.1.2-.3.2-.1 0-.2.1-.2.2v.2M31.1-10.4v.2c-.1.1-.1.1-.2.1-.1.1-.1.3-.1.4-.2.1 0 .2 0 .3v.2c0 .1 0 .3.1.4.1.2.3.4.4.5.2.1.4.6.6.6.2 0 .4-.1.5-.1.2 0 .4 0 .6-.1.2-.1.1-.3.3-.5.1-.1.3 0 .4-.1.2-.1.3-.3.4-.5v-.2c0-.1.1-.2.1-.3 0-.1-.1-.1-.1-.2v-.3c0-.2 0-.4-.1-.5-.4-.7-1.2-.9-2-.8-.2 0-.3.1-.4.2-.2.1-.1.2-.3.2-.1 0-.2.1-.2.2v.3M23.5-10.4v.2c-.1.1-.1.1-.2.1-.1.1-.1.3-.1.4-.2.1 0 .2 0 .3v.2c0 .1 0 .3.1.4.1.2.3.4.4.5.2.1.4.6.6.6.2 0 .4-.1.5-.1.2 0 .4 0 .6-.1.2-.1.1-.3.3-.5.1-.1.3 0 .4-.1.2-.1.3-.3.4-.5v-.2c0-.1.1-.2.1-.3 0-.1-.1-.1-.1-.2v-.3c0-.2 0-.4-.1-.5-.4-.7-1.2-.9-2-.8-.2 0-.3.1-.4.2-.2.1-.1.2-.3.2-.1 0-.2.1-.2.2v.3M15.8-10.4v.2c-.1.1-.1.1-.2.1-.1.1-.1.3-.1.4-.2.1 0 .2 0 .3v.2c0 .1 0 .3.1.4.1.2.3.4.4.5.2.1.4.6.6.6.2 0 .4-.1.5-.1.2 0 .4 0 .6-.1.2-.1.1-.3.3-.4.1-.1.3 0 .4-.1.2-.1.3-.3.4-.5v-.2c0-.1.1-.2.1-.3 0-.1-.1-.1-.1-.2v-.3c0-.2 0-.4-.1-.5-.4-.7-1.2-.9-2-.8-.2 0-.3.1-.4.2-.2.1-.1.2-.3.2-.1 0-.2.1-.2.2v.2M8.2-10.4v.2c-.1.1-.2 0-.2.1-.1.1-.1.3-.1.3-.2.1 0 .2 0 .3v.2c0 .1 0 .3.1.4 0 .2.2.4.3.6.2.1.4.6.6.6.2 0 .4-.1.5-.1.2 0 .4 0 .6-.1.2-.1.1-.3.3-.5.1-.1.3 0 .4-.1.2-.1.3-.3.4-.5v-.2c0-.1.1-.2.1-.3 0-.1-.1-.1-.1-.2v-.3c0-.2 0-.4-.1-.5-.4-.7-1.2-.9-2-.8-.2 0-.3.1-.4.2-.2.1-.1.2-.3.2-.1 0-.2.1-.2.2.1.2.1.2.1.3-.1 0-.1 0 0 0M.5-10.4v.2c-.1.1-.1.1-.2.1 0 .1-.1.3-.1.3-.2.1 0 .2 0 .3v.2c0 .1 0 .3.1.4.1.2.3.4.4.5.2.2.3.6.6.7.2 0 .4-.1.5-.1.2 0 .4 0 .6-.1.2-.1.1-.3.3-.4.1-.1.3 0 .4-.1.2-.1.3-.3.4-.5v-.2c0-.1.1-.2.1-.3 0-.1-.1-.1-.1-.2v-.3c0-.2 0-.4-.1-.5-.4-.7-1.2-.9-2-.8-.2 0-.3.1-.4.2-.2.1-.1.2-.3.2-.1 0-.2.1-.2.2v.2"/></g></g><g><path class="st2" d="M69.4-2.8v.2c-.1.1-.1.1-.2.1-.1.1-.1.3-.1.4-.2.1 0 .2 0 .3v.2c0 .1 0 .3.1.4.1.2.3.4.4.5.2.2.4.6.6.7.2 0 .4-.1.5-.1.2 0 .4 0 .6-.1.2-.1.1-.3.3-.5.1-.1.3 0 .4-.1.2-.1.3-.3.4-.5v-.2c0-.1.1-.2.1-.3 0-.1-.1-.1-.1-.2v-.3c0-.2 0-.4-.1-.5-.4-.7-1.2-.9-2-.8-.2 0-.3.1-.4.2-.2.1-.1.2-.3.2-.1 0-.2.1-.2.2v.2c0 .1 0 0 0 0M61.8-2.8v.2c-.1.1-.1.1-.2.1-.1.1-.1.3-.1.4-.2.1 0 .2 0 .3v.2c0 .1 0 .3.1.4 0 .2.2.4.4.5.2.1.4.6.6.6.2 0 .4-.1.5-.1.2 0 .4 0 .6-.1.2-.1.1-.3.3-.5.1-.1.3 0 .4-.1.2-.1.3-.3.4-.5v-.2c0-.1.1-.2.1-.3 0-.1-.1-.1-.1-.2v-.3c0-.2 0-.4-.1-.5-.4-.7-1.2-.9-2-.8-.2 0-.3.1-.4.2-.2.1-.1.2-.3.2-.1 0-.2.1-.2.2v.3c0 .1 0 0 0 0M54.1-2.8v.2c-.1.1-.1.1-.2.1-.1.1-.1.3-.1.4-.2.1 0 .2 0 .3v.2c0 .1 0 .3.1.4.1.2.2.4.4.5.2.1.4.6.6.6.2 0 .4-.1.5-.1.2 0 .4 0 .6-.1.2-.1.1-.3.3-.5.1-.1.3 0 .4-.1.2.1.3-.1.4-.3v-.2c0-.1.1-.2.1-.3 0-.1-.1-.1-.1-.2v-.3c0-.2 0-.4-.1-.5-.4-.7-1.2-.9-2-.8-.2 0-.3.1-.4.2-.2.1-.1.2-.3.2-.1 0-.2.1-.2.2v.1c0 .1 0 0 0 0M46.5-2.8v.2c-.1.1-.1.1-.2.1-.1.1-.1.3-.1.4-.2.1 0 .2 0 .3v.2c0 .1 0 .3.1.4.1.2.3.4.4.5.1.2.3.6.5.7.2 0 .4-.1.5-.1.2 0 .4 0 .6-.1.2-.1.1-.3.3-.5.1-.1.3 0 .4-.1.2-.1.3-.3.4-.5v-.2c0-.1.1-.2.1-.3 0-.1-.1-.1-.1-.2v-.3c0-.2 0-.4-.1-.5-.4-.7-1.2-.9-2-.8-.2 0-.3.1-.4.2-.2.1-.1.2-.3.2-.1 0-.2.1-.2.2.1.2.1.1.1.2M38.8-2.8v.2c-.1.1-.1.1-.2.1-.1.1-.1.3-.1.4-.2.1 0 .2 0 .3v.2c0 .1 0 .3.1.4 0 .2.2.4.4.5.2.1.4.6.6.6.2 0 .4-.1.5-.1.2 0 .4 0 .6-.1.2-.1.1-.3.3-.5.1-.1.3 0 .4-.1.2-.1.3-.3.4-.5v-.2c0-.1.1-.2.1-.3 0-.1-.1-.1-.1-.2v-.3c0-.2 0-.4-.1-.5-.4-.7-1.2-.9-2-.8-.2 0-.3.1-.4.2-.2.1-.1.2-.3.2-.1 0-.2.1-.2.2v.3c0 .1 0 0 0 0M31.1-2.8v.2c-.1.1-.1.1-.2.1-.1.1-.1.3-.1.4-.2.1 0 .2 0 .3v.2c0 .1 0 .3.1.4.1.2.2.4.4.5.2.1.4.6.6.6.2 0 .4-.1.5-.1.2 0 .4 0 .6-.1.2-.1.1-.3.3-.5.1-.1.3 0 .4-.1.2-.1.3-.3.4-.5v-.2c0-.1.1-.2.1-.3 0-.1-.1-.1-.1-.2v-.3c0-.2 0-.4-.1-.5-.4-.7-1.2-.9-2-.8-.2 0-.3.1-.4.2-.2.1-.1.2-.3.2-.1 0-.2.1-.2.2v.3c0 .1 0 0 0 0M23.5-2.8v.2c-.1.1-.1.1-.2.1-.1.1-.1.3-.1.4-.2.1 0 .2 0 .3v.2c0 .1 0 .3.1.4.1.2.3.4.4.5.1.2.3.6.6.7.2 0 .4-.1.5-.1.2 0 .4 0 .6-.1.2-.1.1-.3.3-.5.1-.1.3 0 .4-.1.2-.1.3-.3.4-.5v-.2c0-.1.1-.2.1-.3 0-.1-.1-.1-.1-.2v-.3c0-.2 0-.4-.1-.5-.4-.7-1.2-.9-2-.8-.2 0-.3.1-.4.2-.2.1-.1.2-.3.2-.1 0-.2.1-.2.2v.2c0 .1 0 0 0 0M15.8-2.8v.2c-.1.1-.1.1-.2.1-.1.1-.1.3-.1.4-.2.1 0 .2 0 .3v.2c0 .1 0 .3.1.4.1.2.2.4.4.5.2.1.4.6.6.6.2 0 .4-.1.5-.1.2 0 .4 0 .6-.1.2-.1.1-.3.3-.5.1-.1.3 0 .4-.1.2-.1.3-.3.4-.5v-.2c0-.1.1-.2.1-.3 0-.1-.1-.1-.1-.2v-.3c0-.2 0-.4-.1-.5-.4-.7-1.2-.9-2-.8-.2 0-.3.1-.4.2-.2.1-.1.2-.3.2-.1 0-.2.1-.2.2v.3c0 .1 0 0 0 0M8.2-2.8v.2c-.1.1-.2.1-.2.1-.1.1-.1.3-.1.4-.2.1 0 .2 0 .3v.2c0 .1 0 .3.1.4 0 .2.2.4.3.5.2.2.4.6.6.7.2 0 .4-.1.5-.1.2 0 .4 0 .6-.1.2-.1.1-.3.3-.5.1-.1.3 0 .4-.1.2-.1.3-.3.4-.5v-.2c0-.1.1-.2.1-.3 0-.1-.1-.1-.1-.2v-.3c0-.2 0-.4-.1-.5-.4-.7-1.2-.9-2-.8 0 .1-.2.2-.3.2-.2.1-.1.2-.3.3-.1 0-.2.1-.2.2v.1c-.1.1-.1 0 0 0M.5-2.8v.2c-.1.1-.1.1-.2.1 0 .1-.1.3-.1.4-.2.1 0 .2 0 .3v.2c0 .1 0 .3.1.4 0 .2.2.4.4.5.2.2.3.6.6.7.2 0 .4-.1.5-.1.2 0 .4 0 .6-.1.2-.1.1-.3.3-.5.1-.1.3 0 .4-.1.2 0 .3-.2.4-.4v-.2c0-.1.1-.2.1-.3 0-.1-.1-.1-.1-.2v-.3c0-.2 0-.4-.1-.5-.4-.7-1.2-.9-2-.8-.1 0-.2.1-.4.1-.1.1-.1.2-.3.3-.1 0-.2.1-.2.2v.1c0 .1 0 0 0 0"/></g></pattern><path fill-rule="evenodd" clip-rule="evenodd" fill="#fff" d="M493.5 41.8l-34.4 60.9-6 48.6-61.3 109.2h-80.2l59.9-105.9V41.8h-62.2l-32.9 60.3-5.6 49.2L183.5 307l14.6 36.7h54.4l-24.8 62.7-46.3-50.1 5.4 73.6-80.3 3.3 63.9 45-45.5 67.8 73.4-24 30.3 72.7 23.1-79.3 81.9 21.1-52.9-61.1 65.1-53.7-67.2 4.1 72.7-82.1H447L552.9 156V41.8z"/><path class="st2" d="M195.1 529.1l-84.3 27.5 51.7-77-73.2-51.5 91.3-3.8-6.2-84.1 51.3 55.5 18.3-46.3h-49.8l-17.1-42.9 88.1-157.1 5.6-49.2L305.9 36h71.4v120.1l-55.8 98.6h67l59.1-105.2 6-48.7 34.9-61.9 1.7-2.9h68.6v121.5l-108.3 192h-96.4l-61.7 69.7 71-4.4-74.2 61.3 61.1 70.6-94.4-24.3-26.3 89.6-34.5-82.9zM493.5 47.5v-5.8 5.8z"/><path fill-rule="evenodd" clip-rule="evenodd" fill="#061922" d="M493.5 41.8l-34.4 60.9-6 48.6-61.3 109.2h-80.2l59.9-105.9V41.8h-62.2l-32.9 60.3-5.6 49.2L183.5 307l14.6 36.7h54.4l-24.8 62.7-46.3-50.1 5.4 73.6-80.3 3.3 63.9 45-45.5 67.8 73.4-24 30.3 72.7 23.1-79.3 81.9 21.1-52.9-61.1 65.1-53.7-67.2 4.1 72.7-82.1H447L552.9 156V41.8z"/><g><path class="st5" d="M480.6 96.1h29l20.2-38h-27.9zM298.2 96.1h31.2l19.9-38h-30.1zM290.7 143.9l28.2.1 2.6-32.6h-27.2zM472.6 143.9l28.1.1 2.7-32.6h-27.3zM466.5 163.4L403 275.2H250.6l63.5-111.8h-29.9l-76.7 135.4h85L228.1 443l-26.7-29.6 1.5 34.9-43 2.4 34.6 24.4-24.7 36.7 39.8-13 16.4 39.4 12.5-42.9 44.4 11.4-28.7-33.1 35.3-29.1-54.4 2.4 100.3-148h85.2L496 163.5h-29.5zM217.1 483.5c-7.1 0-12.9-5.8-12.9-12.9 0-7.1 5.8-12.9 12.9-12.9 7.1 0 12.9 5.8 12.9 12.9 0 7.1-5.7 12.9-12.9 12.9z"/></g></svg>