<svg xmlns="http://www.w3.org/2000/svg" viewBox="0 0 648 648"><path fill="#f9a01b" d="M36 563.7l280.3-153.4-190.1 153.4 230.7-132.5-3.8 26.7 38.4-21.3 86.9 82.1 46.2-138.9 58.7-8.4-25.8-80.2 54.5-47.4-72.3-30.5 19.9-84.3-66.7 30.5-31.4-75.2-56.3 56.1-92.7-48.6-16.6 91.3-85.7 18.5 50.7 30.5-51 25.6 43.3 3.8L75.1 400.1l179.2-95.3L62.1 451.2l204.6-106.7L48.1 508.9 289 380.5z"/><path d="M548.9 292.4c-3.2 77-68.2 136.9-145.2 133.7-77-3.2-136.9-68.2-133.7-145.2 3.2-77 68.2-136.9 145.2-133.7 77 3.2 136.9 68.2 133.7 145.2z" fill="#e56020"/><path d="M426.5 407.1c-77-3.2-136.9-68.2-133.7-145.2 1.5-35.6 16.2-67.6 39.2-91.3-35.8 23.9-60.1 64-62.1 110.4-3.2 77 56.7 142 133.7 145.2 41.4 1.7 79.3-14.8 106-42.4-23.6 15.8-52.4 24.5-83.1 23.3z" fill="#b95915"/><path d="M549 288.3c.1-5-.1-9.9-.6-14.8-8-5.6-17.6-9.9-29-11.3-2.2-.3-4.2-.4-6.3-.6-1.4-9.2-3.4-18.2-6.2-27 1.4.1 2.9.1 4.4.3 9.8.7 19.5 1.8 29 3.2-1.3-3.6-2.8-7-4.4-10.5-10.7-1.6-21.6-2.9-32.7-3.7h-.1c-3.6-9-7.9-17.6-12.9-25.9 7.1-1.5 13.5-4.4 18.7-9.2-2.6-2.7-5.4-5.3-8.2-7.7-4.5 4.1-10.3 6.3-17 7.2-1-1.4-2-2.9-3.1-4.2-9.5-12.3-20.4-22.9-32.5-31.4-10.5-3-21.5-4.9-32.9-5.3h-1.9c21.2 8.3 40.2 22.3 55.4 41.1-14.5-1.4-31.3-6.3-47.8-11.1-4.9-1.5-9.7-2.9-14.3-4.1-28.2-7.8-49.9-9-66.2-7.6-12.1 6.9-23.1 15.6-32.6 25.6 17.6-7.3 53-19.8 96-7.9 4.6 1.3 9.3 2.6 14.1 4.1 19 5.6 40.3 11.8 58.8 12 5.1 7.6 9.5 15.6 13.1 23.9-3.6-.2-7.2-.3-10.8-.3-89.6-1.5-166.5 25.3-209.1 68.1.2 8.5 1.2 16.8 2.9 24.9 12-17.3 29.8-32.9 52.8-45.8 43.4-24.4 101-37.2 162.1-36.2 2.1 0 4.2.1 6.3.2 3.1 8.9 5.4 18 6.9 27.4-39.4 1.7-64.9 26.3-94.3 52.4-26.3 23.6-58.4 47-105.4 61.1 4.4 5.4 9.2 10.5 14.4 15.2 44.3-17.8 73.7-45.6 98.6-67.8 28.2-25.2 52.4-49.4 88-50.6.9 9.8 1 19.9 0 30-4.8 54.7-36.4 101-79.6 123.9 11-1 21.7-3.4 31.9-6.9 3.5-2.9 6.8-5.9 10.1-9.1C492.9 382 510.5 344 514.1 303c.9-10.3.9-20.5.1-30.5 1.8.2 3.5.3 5.4.6 12.2 1.7 21.9 7.8 29.4 15.2z" fill="#061922"/></svg>