<svg version="1.1" id="Layer_1" xmlns="http://www.w3.org/2000/svg" x="0" y="0" viewBox="0 0 648 648" xml:space="preserve"><style>.st1{fill:#c4ced4}.st2{fill:#002b5c}.st3{fill:#e31837}</style><path d="M324.5 42.4h-.5c-155.3 0-281.3 125.8-281.6 281.2v.5c0 155.4 125.9 281.4 281.3 281.6h.5c155.4 0 281.3-125.9 281.5-281.3v-.4c-.1-155.3-125.8-281.3-281.2-281.6z" fill="#fff"/><path class="st1" d="M612 323.4C611.7 164.6 482.8 36 324.1 36h-.6c-158.9.3-287.4 129.2-287.4 287.9v.5c.1 158.9 129 287.5 287.9 287.6h.5c158.9-.2 287.6-129 287.7-287.8v-.4c-.2 0-.2-.1-.2-.4zm-6.4.8v.2c-.2 155.4-126.2 281.2-281.5 281.3h-.5C168.3 605.4 42.5 479.4 42.5 324v-.5C42.7 168.2 168.7 42.4 324 42.4h.5c155.4.3 281.1 126.3 281.1 281.6v.2z"/><path class="st2" d="M229.9 260c29.3-29.2 41.6-63.4 41.6-63.4l6.5-23.7 1.5-5.5-30-16.8s-17.5-12.1-56.6 10.5c-45.8 27-83 61.9-102.3 98.9-10.7 20.5-19.1 44.1-23.5 71 1.4 50.8 17.4 98 44.1 137.3-7.5-73.2 63.3-153.5 118.7-208.3zM455.5 161.1c-39.1-22.7-56.6-10.5-56.6-10.5l-30 16.8 1.5 5.5 6.5 23.7s12.3 34.2 41.6 63.4c55.2 54.6 125.8 134.5 118.6 207.6 26.9-39.8 42.8-87.5 43.7-138.9-4.5-25.9-12.8-48.8-23.2-68.7-19.1-37-56.3-71.9-102.1-98.9z"/><path class="st3" d="M361.5 117.2c102.7 11.6 170.2 69.9 205.1 121.6-26.2-74.6-85.9-133.5-161.1-158.6-16.6 4.9-35 15.2-44 37zM287 117.2c-9.1-21.9-27.6-32.2-44.3-37-75.6 25.2-135.5 84.5-161.5 159.8 34.6-52 102.3-111.1 205.8-122.8zM303.9 114.3l20.4-30 20.4 30c8.2-22.4 21.1-34.7 34-41.4-17.5-3.8-35.7-5.9-54.4-5.9-18.8 0-37 2-54.6 5.8 13 6.7 25.9 19 34.2 41.5z"/><g><path class="st2" d="M463.8 339.4c-41.8-67.6-136.6-135.8-139.6-138-3 2.1-97.8 70.4-139.6 138-56.4 91.2-49.1 143.8-34.5 173.8 36.3 33.4 82.3 56.5 133.3 64.6l22-311.6 18.3-18.4.2-.2.2.2 18.3 18.4 22.1 311.3-.3.2c51.4-8.1 97.7-31.4 134.2-65.2 14.6-30.1 21.4-82.6-34.6-173.1z"/><path class="st1" d="M342.6 266.3l-18.3-18.4.2 352.6 39.9-22.8.3-.1z"/></g><path class="st1" d="M324.1 177.8l-8 5.9-33.5 24.7 8.8-31.9 1.5-5.5 3-10.7-9.7-5.2-31.5-17c15.9-3.5 32.2-5.8 48.6-6.8l8-.5.3-.7 3.2-6.6.5-1 9-18.3 9.3 18.9.2.4 3.2 6.6.3.7 8 .5c16.4 1 32.7 3.3 48.6 6.8l-31.5 17-9.7 5.2 2.9 10.7 1.5 5.5 8.8 31.9-33.5-24.7-8-5.9v-.2l-.1.1-.1-.1v.2z"/><path class="st1" d="M324.4 177.6v.2l8 5.9 33.5 24.7-8.8-31.9-1.5-5.5-2.9-10.7 9.7-5.2 31.5-17c-15.9-3.5-32.2-5.8-48.6-6.8l-8-.5-.3-.7-3.2-6.6-.2-.4-9.3-18.9-9 18.3-.5 1-3.2 6.6-.3.7-8 .5c-16.4 1-32.7 3.3-48.6 6.8l31.5 17 9.7 5.2-3 10.7-1.5 5.5-8.8 31.9 33.5-24.7 8-5.9v-.2l.1.1.2-.1z"/></svg>