<svg width="648" height="648" viewBox="0 0 648 648" fill="none" xmlns="http://www.w3.org/2000/svg">
<g clip-path="url(#clip0_1715_14054)">
<path d="M323.93 612C201.48 612 92.17 534.21 51.94 418.44C-0.110017 268.45 79.55 104.07 229.5 52C260.08 41.38 291.84 36 323.92 36C446.4 36 555.7 113.78 595.91 229.55L597.27 233.47L597.24 233.52C646.56 382.42 567.02 544.39 418.39 596C387.79 606.63 356.01 612.01 323.93 612.01" fill="#A0A2A3"/>
<path d="M561.07 193.81C526.3 130.46 468.93 84.45 399.55 64.25C387.59 60.77 375.32 58.09 363.09 56.29H363.06C230.25 36.72 101.75 119.3 64.1699 248.37C43.9699 317.75 51.9899 390.85 86.7699 454.19C121.55 517.54 178.91 563.55 248.29 583.75C260.26 587.23 272.53 589.92 284.78 591.72C311.93 595.72 338.88 595.39 364.93 591.33C365.25 591.49 365.57 591.67 365.89 591.82L366.2 591.14C467.05 574.92 553.9 501.91 583.68 399.63C603.88 330.25 595.85 257.15 561.08 193.81M428.75 98.85V98.55C485.37 124.79 528.49 170.72 552.17 225.47C526.26 193.26 491.17 173.05 457.68 160.37C453.63 147.08 445.98 135.34 432.17 129.56C429.48 123.4 425.7 119.08 418.31 116.31C410.16 118.12 396.88 127.58 388.65 142.53C379.71 141.16 372.02 140.32 366.12 139.82L364.32 139.66C362.14 139.45 359.61 139.28 356.79 139.09C344.77 138.27 328.04 137.06 307.77 131.13C308.87 130.38 309.99 129.66 311.13 129C375.81 97.64 428.07 98.84 428.76 98.86M263.17 246.6C253.02 227.98 240.55 212.38 225.02 202.19C232.2 198.04 239.65 194.25 246.46 191C256.21 192.33 284.63 196.46 296.54 200.74C305.03 205.83 313.54 211.3 322.03 217.05C319.86 219.74 317.67 222.49 315.42 225.35C315.42 225.35 290.22 225.66 263.17 246.59M251.09 257.27C229.06 279.39 192.68 327.07 148.96 366.97C152.77 308.15 172.64 258.6 199.96 220.16C202.84 217.33 206.27 214.52 210.05 211.78C227.1 220.37 240.46 236.77 251.09 257.27ZM332.29 204.54C323.83 198.81 315.34 193.35 306.86 188.24C300.49 181.09 287.66 167.67 280.94 160.67C284.25 155.42 288.66 149.17 294.01 143.26C320.24 152.31 342.01 154 355.7 154.93C358.37 155.11 360.74 155.27 362.8 155.48L364.78 155.65C368.39 155.96 371.88 156.35 375.37 156.73C362.22 170.5 348.4 185.28 332.29 204.54ZM269.34 81.44C298.48 74.86 329.09 73.44 359.86 77.97C371.05 79.61 382.25 82.05 393.41 85.3C393.83 85.42 394.23 85.56 394.65 85.69C378.96 88.11 358.77 92.68 336.05 100.97C318.06 107 299.38 114.15 282.21 121.14C275.95 117.48 271.5 112.8 269.2 107.01C265.39 97.41 267.66 86.86 269.35 81.43M252.02 86.02C250.81 93.64 250.66 103.26 254.37 112.72C256.71 118.69 260.32 123.85 265.08 128.25C254.17 132.88 244.33 137.2 236.25 140.84C217.1 140.07 183.6 139.1 160.06 140.49C158.79 140.47 157.45 140.42 156.24 140.42C183.7 115.38 216.5 96.79 252.02 86.02M139.76 156.94C145.25 156.56 153.06 156.27 162.4 156.53C185.12 158.57 193.35 164.83 206.54 173.48C203.46 178.87 200.09 184.8 196.75 190.72C154.53 182.46 116.52 210.35 91.2499 236.58C102.54 206.45 119.15 179.62 139.76 156.94M80.4199 274.21C97.2599 251.39 140.65 200.35 188.51 205.47C184.73 212.3 181.54 218.17 179.65 221.93C167.1 241.33 155.33 264.61 146.58 292.15C137.47 320.83 132.73 350.69 132.21 381.53C122.01 389.93 111.49 397.73 100.73 404.54C100.73 404.54 119.9 421.64 138.97 428.37C138.97 428.37 125.86 448.97 117.5 462.42C81.5199 408.68 66.6299 341.35 80.4299 274.21M455.84 534.57C454.05 505.58 449.23 482.15 449.23 482.15C451.84 483.2 458.36 487.89 458.36 487.89C457.12 433.66 434.32 414.56 434.94 384.98C435.46 360.21 438.85 342.99 445.38 327.51C484.94 374.11 514.51 424.62 523.99 471.57C505.28 496.93 482.04 518.16 455.84 534.56M562.61 393.49C556.31 415.15 547.28 435.26 536.06 453.63C522.88 405.95 492.49 356.71 453.39 311.72C456.92 305.72 460.95 299.67 465.57 293.22C476.24 281.64 481.27 292.38 481.27 292.38C489.84 269.15 484.39 257.45 480.23 252.45C478.68 250.15 476.81 249.32 476.81 249.32C473.21 232.98 458.4 224.4 458.4 224.4C458.4 224.4 463.5 201.45 461.04 177.68C541.12 211.12 564.78 271.63 571.66 303.38C574.12 332.9 571.38 363.35 562.6 393.48" fill="#0C233F"/>
<path d="M282.21 121.16C299.39 114.16 318.06 107.02 336.05 100.99C358.77 92.7 378.96 88.13 394.66 85.72C394.24 85.59 393.84 85.44 393.42 85.33C382.25 82.08 371.06 79.65 359.86 78C329.09 73.47 298.48 74.88 269.35 81.47C267.67 86.89 265.39 97.45 269.2 107.04C271.49 112.83 275.94 117.52 282.21 121.17" fill="#266092"/>
<path d="M146.57 292.14C155.33 264.59 167.1 241.32 179.64 221.92C181.54 218.16 184.72 212.29 188.5 205.46C140.64 200.35 97.2601 251.38 80.4201 274.2C66.6201 341.34 81.5101 408.67 117.49 462.41C125.86 448.96 138.96 428.36 138.96 428.36C119.88 421.63 100.72 404.53 100.72 404.53C111.48 397.71 122 389.92 132.2 381.52C132.71 350.68 137.45 320.82 146.57 292.14" fill="#266092"/>
<path d="M156.24 140.44C157.44 140.44 158.79 140.49 160.05 140.51C183.59 139.11 217.09 140.08 236.24 140.86C244.33 137.23 254.16 132.9 265.07 128.28C260.32 123.87 256.7 118.71 254.36 112.74C250.65 103.28 250.8 93.66 252.01 86.04C216.49 96.81 183.69 115.4 156.23 140.44" fill="#266092"/>
<path d="M455.84 534.57C482.04 518.17 505.28 496.94 523.99 471.58C514.51 424.62 484.94 374.12 445.38 327.52C438.84 342.99 435.45 360.22 434.94 384.99C434.32 414.57 457.12 433.67 458.35 487.9C458.35 487.9 451.83 483.21 449.22 482.16C449.22 482.16 454.04 505.58 455.84 534.58" fill="#266092"/>
<path d="M246.47 191C239.67 194.25 232.21 198.04 225.03 202.19C240.56 212.38 253.03 227.98 263.18 246.6C290.23 225.66 315.43 225.35 315.43 225.35C317.69 222.49 319.88 219.74 322.04 217.05C313.56 211.3 305.05 205.83 296.55 200.74C284.64 196.46 256.21 192.32 246.47 190.99" fill="#266092"/>
<path d="M375.37 156.74C371.88 156.36 368.39 155.97 364.78 155.66L362.8 155.49C360.74 155.28 358.36 155.13 355.7 154.95C342.01 154.01 320.25 152.33 294.02 143.28C288.67 149.19 284.26 155.44 280.95 160.69C287.67 167.68 300.5 181.11 306.86 188.26C315.34 193.36 323.83 198.82 332.29 204.56C348.39 185.29 362.22 170.51 375.36 156.74" fill="#266092"/>
<path d="M91.25 236.58C116.52 210.36 154.53 182.47 196.75 190.73C200.09 184.8 203.46 178.87 206.54 173.48C193.35 164.83 185.12 158.57 162.41 156.53C153.07 156.27 145.26 156.57 139.77 156.95C119.16 179.63 102.55 206.46 91.26 236.59" fill="#266092"/>
<path d="M562.61 393.5C571.39 363.36 574.13 332.92 571.67 303.4C564.79 271.65 541.13 211.14 461.05 177.7C463.51 201.47 458.41 224.42 458.41 224.42C458.41 224.42 473.22 233 476.82 249.34C476.82 249.34 478.69 250.17 480.24 252.47C484.39 257.47 489.85 269.17 481.28 292.4C481.28 292.4 476.25 281.66 465.58 293.24C460.96 299.69 456.93 305.73 453.4 311.74C492.5 356.73 522.9 405.98 536.07 453.65C547.28 435.28 556.31 415.17 562.62 393.51" fill="#266092"/>
<path d="M418.3 116.31C425.69 119.08 429.47 123.4 432.17 129.56C445.97 135.35 453.63 147.08 457.68 160.37C491.17 173.05 526.26 193.27 552.17 225.47C528.5 170.72 485.38 124.79 428.77 98.55V98.85C428.07 98.82 375.81 97.63 311.14 128.99C309.99 129.66 308.88 130.37 307.78 131.12C328.04 137.05 344.78 138.26 356.79 139.08C359.62 139.27 362.14 139.45 364.32 139.65L366.12 139.81C372.02 140.31 379.71 141.15 388.65 142.52C396.88 127.56 410.16 118.11 418.31 116.3" fill="#266092"/>
<path d="M251.09 257.28C240.46 236.79 227.1 220.39 210.04 211.79C206.26 214.53 202.84 217.34 199.95 220.17C172.63 258.6 152.76 308.16 148.95 366.98C192.67 327.08 229.05 279.4 251.09 257.28" fill="#266092"/>
<path d="M275.48 137.5L258.29 162.43C258.29 162.43 271.28 171.46 281.96 183.67C263.26 179.85 242.74 176.4 242.74 176.4L210.2 194.09L225.46 168.78C225.46 168.78 215.19 160.01 203.36 152.38C216.34 152.76 241.01 154.8 241.01 154.8L275.49 137.5H275.48Z" fill="#79BC43"/>
<path d="M307.63 247.79C307.63 247.79 303.98 257.86 303.51 267.22C303.51 267.22 280.69 270.58 269.71 278.06C269.71 278.06 292.49 255.35 307.63 247.79Z" fill="#79BC43"/>
<path d="M461.36 246.78C463.89 246.16 465.79 246.06 467.2 246.16C466.78 244.99 465.99 243.25 464.58 241.53C462.57 239.09 459.63 237.25 459.63 237.25C461.52 240.17 461.58 244.19 461.36 246.77" fill="white"/>
<path d="M440.77 257.16C443.72 255.13 446.41 253.46 448.85 252.09C448.41 251.03 447.72 249.51 446.69 247.67C444.73 244.17 439.63 241.11 439.63 241.11C441.74 247.35 441.29 253.66 440.78 257.16" fill="white"/>
<path d="M196.01 411.18C176.61 419.11 130.71 408.3 130.71 408.3C177.08 405.63 222.44 372.41 222.44 372.41C222.41 372.49 222.36 372.57 222.34 372.65C208.74 393.5 190 405.57 190 405.57C192.07 408.21 194.15 409.97 196.01 411.19" fill="#A0A2A3"/>
<path d="M427.23 134.49C427.23 134.49 415.83 125.55 402.89 139.42C416.75 114.16 424.76 128.64 427.23 134.49" fill="#79BC43"/>
<path d="M472.26 257.02C472.26 257.02 471.06 256.21 470.81 256.07C463.57 252.21 450.61 263.46 442.14 268.12C433.68 272.78 421.35 282.71 415.33 269.03C409.31 255.35 423.16 233.97 427.95 220.5C438.53 190.74 438.92 173.22 436.69 163.75C446.47 174.79 449.55 195.96 449.55 195.96C449.55 195.96 453.18 156.2 433.74 145.73C434.19 147.14 433.69 152.1 433.29 156C433.29 156 433.25 155.95 433.23 155.92C424.18 157.57 404.21 155.3 397.72 151.91C373.17 178.25 346.4 214.89 326.25 248.54C317.51 266.33 308.95 287.21 306.81 304.18C306.81 304.18 304.02 296.51 303.37 286.28C292.22 290.58 254.33 309.2 246.22 366.31C246.22 366.31 270.3 341.46 296.93 331.78C296.93 331.78 280.07 375.95 312.25 454.22C312.25 454.22 325.28 406.22 352.53 394.11C369.03 476.07 417.41 477.42 431.52 533.18C431.52 533.18 446.31 504.29 428.51 455.19C428.51 455.19 434.65 456.9 439.85 463.03C439.85 463.03 439.04 448.67 425.62 417.68C416.87 401.09 414.13 378.71 414.13 378.71C406.27 385.83 404.26 409.88 404.26 409.88C380.24 344.72 448.42 280.14 460.86 270.62C466.93 265.96 470.68 265.88 472.94 267C475.28 262.15 475.07 259.05 472.25 257.02" fill="#A0A2A3"/>
</g>
<defs>
<clipPath id="clip0_1715_14054">
<rect width="575.85" height="576" fill="white" transform="translate(36 36)"/>
</clipPath>
</defs>
</svg>
